{"glyphs":{"0":{"ha":926,"x_min":52,"x_max":875,"o":"m 463 66 q 689 149 600 66 q 778 354 778 231 q 689 560 778 479 q 463 642 600 642 q 236 560 325 642 q 147 354 147 479 q 237 149 147 231 q 463 66 326 66 m 463 -20 q 167 86 283 -20 q 52 354 52 193 q 168 623 52 516 q 463 729 283 729 q 759 623 642 729 q 875 354 875 516 q 759 86 875 193 q 463 -20 642 -20 z "},"1":{"ha":926,"x_min":415,"x_max":510,"o":"m 415 -4 l 415 715 l 510 715 l 510 -4 l 415 -4 z "},"2":{"ha":926,"x_min":160,"x_max":799,"o":"m 163 0 q 161 54 162 24 q 160 89 160 84 q 207 264 160 203 q 370 366 254 324 q 479 402 410 379 q 688 530 688 472 q 638 610 688 578 q 511 642 589 642 q 374 615 444 642 q 222 530 304 588 l 167 603 q 333 698 250 667 q 503 729 416 729 q 706 672 627 729 q 785 529 785 616 q 525 327 785 414 q 492 315 503 319 q 293 224 332 262 q 254 122 254 187 q 255 109 254 116 q 257 86 255 102 l 799 86 l 799 0 l 163 0 z "},"3":{"ha":926,"x_min":79,"x_max":850,"o":"m 138 216 q 306 101 227 136 q 482 66 386 66 q 676 112 599 66 q 753 222 753 158 q 694 317 753 286 q 515 349 635 349 l 484 349 l 484 435 q 502 434 492 434 q 530 433 512 433 q 658 456 618 433 q 699 529 699 479 q 649 610 699 579 q 517 642 600 642 q 371 616 443 642 q 227 538 299 590 l 171 614 q 336 700 248 671 q 521 729 425 729 q 720 674 646 729 q 794 529 794 620 q 778 455 794 488 q 729 397 762 422 q 819 328 789 371 q 850 225 850 284 q 747 52 850 123 q 488 -20 645 -20 q 264 20 363 -20 q 79 146 165 60 l 138 216 z "},"4":{"ha":926,"x_min":78,"x_max":860,"o":"m 221 260 l 647 260 l 647 599 l 221 260 m 647 0 l 647 172 l 78 172 l 78 260 l 647 713 l 741 713 l 741 260 l 860 260 l 860 172 l 741 172 l 741 0 l 647 0 z "},"5":{"ha":926,"x_min":113,"x_max":811,"o":"m 113 113 l 160 192 q 329 97 254 126 q 479 68 405 68 q 647 122 581 68 q 714 256 714 176 q 646 371 714 326 q 469 416 578 416 q 347 399 406 416 q 225 345 288 382 l 167 345 l 167 713 l 743 713 l 743 625 l 260 625 l 260 467 q 371 495 319 486 q 469 504 422 504 q 716 431 622 504 q 811 244 811 359 q 716 57 811 133 q 475 -20 621 -20 q 291 13 380 -20 q 113 113 201 46 z "},"6":{"ha":926,"x_min":81,"x_max":861,"o":"m 184 314 q 294 139 197 211 q 519 68 391 68 q 693 119 623 68 q 764 240 764 170 q 690 363 764 313 q 510 414 617 414 q 350 390 429 414 q 184 314 271 366 m 762 542 q 633 616 701 591 q 496 642 565 642 q 286 581 369 642 q 186 416 203 521 q 347 481 270 460 q 507 501 424 501 q 762 428 662 501 q 861 241 861 355 q 767 53 861 125 q 519 -20 673 -20 q 204 89 328 -20 q 81 359 81 197 q 195 626 81 523 q 492 729 309 729 q 663 700 585 729 q 817 607 742 670 l 762 542 z "},"7":{"ha":926,"x_min":144,"x_max":868,"o":"m 256 0 l 693 625 l 144 625 l 144 713 l 868 713 l 366 0 l 256 0 z "},"8":{"ha":926,"x_min":106,"x_max":818,"o":"m 203 221 q 273 110 203 152 q 463 68 343 68 q 651 110 581 68 q 721 221 721 151 q 661 324 721 292 q 463 355 602 355 q 263 323 323 355 q 203 221 203 292 m 690 406 q 786 330 755 375 q 818 222 818 285 q 722 46 818 112 q 463 -20 627 -20 q 202 46 298 -20 q 106 221 106 111 q 138 330 106 283 q 235 406 171 376 q 176 464 196 431 q 155 536 155 497 q 238 676 155 624 q 463 728 321 728 q 687 676 604 728 q 770 536 770 624 q 749 464 770 497 q 690 406 729 431 m 672 541 q 615 613 672 585 q 463 642 558 642 q 310 613 366 642 q 254 538 254 585 q 309 468 254 493 q 463 443 363 443 q 618 468 564 443 q 672 541 672 494 z "},"9":{"ha":926,"x_min":64,"x_max":846,"o":"m 741 396 q 631 570 728 498 q 406 642 534 642 q 232 590 302 642 q 161 468 161 539 q 235 345 161 395 q 416 294 309 294 q 575 319 496 294 q 741 396 653 343 m 164 167 q 293 93 224 118 q 431 68 361 68 q 641 128 557 68 q 741 292 724 188 q 581 228 658 248 q 419 208 504 208 q 164 282 264 208 q 64 468 64 355 q 158 656 64 584 q 407 729 253 729 q 722 621 598 729 q 846 350 846 512 q 731 84 846 187 q 435 -20 617 -20 q 262 10 341 -20 q 109 103 182 40 l 164 167 z "},"Ď":{"ha":833,"x_min":69,"x_max":764,"o":"m 69 -245 l 69 979 l 764 979 l 764 -245 l 69 -245 m 147 -168 l 686 -168 l 686 901 l 147 901 l 147 -168 z "},"ď":{"ha":833,"x_min":69,"x_max":764,"o":"m 69 -245 l 69 979 l 764 979 l 764 -245 l 69 -245 m 147 -168 l 686 -168 l 686 901 l 147 901 l 147 -168 z "},"Đ":{"ha":833,"x_min":69,"x_max":764,"o":"m 69 -245 l 69 979 l 764 979 l 764 -245 l 69 -245 m 147 -168 l 686 -168 l 686 901 l 147 901 l 147 -168 z "},"―":{"ha":833,"x_min":69,"x_max":764,"o":"m 69 -245 l 69 979 l 764 979 l 764 -245 l 69 -245 m 147 -168 l 686 -168 l 686 901 l 147 901 l 147 -168 z "},"‖":{"ha":833,"x_min":69,"x_max":764,"o":"m 69 -245 l 69 979 l 764 979 l 764 -245 l 69 -245 m 147 -168 l 686 -168 l 686 901 l 147 901 l 147 -168 z "},"‗":{"ha":833,"x_min":69,"x_max":764,"o":"m 69 -245 l 69 979 l 764 979 l 764 -245 l 69 -245 m 147 -168 l 686 -168 l 686 901 l 147 901 l 147 -168 z "},"‛":{"ha":833,"x_min":69,"x_max":764,"o":"m 69 -245 l 69 979 l 764 979 l 764 -245 l 69 -245 m 147 -168 l 686 -168 l 686 901 l 147 901 l 147 -168 z "},"‟":{"ha":833,"x_min":69,"x_max":764,"o":"m 69 -245 l 69 979 l 764 979 l 764 -245 l 69 -245 m 147 -168 l 686 -168 l 686 901 l 147 901 l 147 -168 z "},"‣":{"ha":833,"x_min":69,"x_max":764,"o":"m 69 -245 l 69 979 l 764 979 l 764 -245 l 69 -245 m 147 -168 l 686 -168 l 686 901 l 147 901 l 147 -168 z "},"․":{"ha":833,"x_min":69,"x_max":764,"o":"m 69 -245 l 69 979 l 764 979 l 764 -245 l 69 -245 m 147 -168 l 686 -168 l 686 901 l 147 901 l 147 -168 z "},"‥":{"ha":833,"x_min":69,"x_max":764,"o":"m 69 -245 l 69 979 l 764 979 l 764 -245 l 69 -245 m 147 -168 l 686 -168 l 686 901 l 147 901 l 147 -168 z "},"∃":{"ha":833,"x_min":69,"x_max":764,"o":"m 69 -245 l 69 979 l 764 979 l 764 -245 l 69 -245 m 147 -168 l 686 -168 l 686 901 l 147 901 l 147 -168 z "},"∄":{"ha":833,"x_min":69,"x_max":764,"o":"m 69 -245 l 69 979 l 764 979 l 764 -245 l 69 -245 m 147 -168 l 686 -168 l 686 901 l 147 901 l 147 -168 z "},"∅":{"ha":833,"x_min":69,"x_max":764,"o":"m 69 -245 l 69 979 l 764 979 l 764 -245 l 69 -245 m 147 -168 l 686 -168 l 686 901 l 147 901 l 147 -168 z "},"∐":{"ha":833,"x_min":69,"x_max":764,"o":"m 69 -245 l 69 979 l 764 979 l 764 -245 l 69 -245 m 147 -168 l 686 -168 l 686 901 l 147 901 l 147 -168 z "},"∓":{"ha":833,"x_min":69,"x_max":764,"o":"m 69 -245 l 69 979 l 764 979 l 764 -245 l 69 -245 m 147 -168 l 686 -168 l 686 901 l 147 901 l 147 -168 z "},"∔":{"ha":833,"x_min":69,"x_max":764,"o":"m 69 -245 l 69 979 l 764 979 l 764 -245 l 69 -245 m 147 -168 l 686 -168 l 686 901 l 147 901 l 147 -168 z "},"∖":{"ha":833,"x_min":69,"x_max":764,"o":"m 69 -245 l 69 979 l 764 979 l 764 -245 l 69 -245 m 147 -168 l 686 -168 l 686 901 l 147 901 l 147 -168 z "},"∗":{"ha":833,"x_min":69,"x_max":764,"o":"m 69 -245 l 69 979 l 764 979 l 764 -245 l 69 -245 m 147 -168 l 686 -168 l 686 901 l 147 901 l 147 -168 z "},"∘":{"ha":833,"x_min":69,"x_max":764,"o":"m 69 -245 l 69 979 l 764 979 l 764 -245 l 69 -245 m 147 -168 l 686 -168 l 686 901 l 147 901 l 147 -168 z "},"∛":{"ha":833,"x_min":69,"x_max":764,"o":"m 69 -245 l 69 979 l 764 979 l 764 -245 l 69 -245 m 147 -168 l 686 -168 l 686 901 l 147 901 l 147 -168 z "},"∜":{"ha":833,"x_min":69,"x_max":764,"o":"m 69 -245 l 69 979 l 764 979 l 764 -245 l 69 -245 m 147 -168 l 686 -168 l 686 901 l 147 901 l 147 -168 z "},"∝":{"ha":833,"x_min":69,"x_max":764,"o":"m 69 -245 l 69 979 l 764 979 l 764 -245 l 69 -245 m 147 -168 l 686 -168 l 686 901 l 147 901 l 147 -168 z "},"≡":{"ha":833,"x_min":69,"x_max":764,"o":"m 69 -245 l 69 979 l 764 979 l 764 -245 l 69 -245 m 147 -168 l 686 -168 l 686 901 l 147 901 l 147 -168 z "},"≢":{"ha":833,"x_min":69,"x_max":764,"o":"m 69 -245 l 69 979 l 764 979 l 764 -245 l 69 -245 m 147 -168 l 686 -168 l 686 901 l 147 901 l 147 -168 z "},"≣":{"ha":833,"x_min":69,"x_max":764,"o":"m 69 -245 l 69 979 l 764 979 l 764 -245 l 69 -245 m 147 -168 l 686 -168 l 686 901 l 147 901 l 147 -168 z "}," ":{"ha":463,"x_min":0,"x_max":0,"o":""},"!":{"ha":463,"x_min":175,"x_max":288,"o":"m 272 195 l 192 195 l 180 749 l 283 749 l 272 195 m 232 104 q 272 87 256 104 q 288 41 288 69 q 272 -2 288 15 q 232 -20 256 -20 q 191 -2 208 -20 q 175 41 175 15 q 192 86 175 68 q 232 104 208 104 z "},"\"":{"ha":386,"x_min":66,"x_max":321,"o":"m 321 972 l 321 597 l 252 597 l 252 972 l 321 972 m 135 972 l 135 597 l 66 597 l 66 972 l 135 972 z "},"#":{"ha":1068,"x_min":79,"x_max":989,"o":"m 661 586 l 481 586 l 415 399 l 596 399 l 661 586 m 623 986 l 509 659 l 688 659 l 804 986 l 890 986 l 775 659 l 989 659 l 964 586 l 749 586 l 682 399 l 913 399 l 888 325 l 657 325 l 542 0 l 454 0 l 571 325 l 389 325 l 272 0 l 186 0 l 301 325 l 79 325 l 106 399 l 326 399 l 395 586 l 155 586 l 179 659 l 419 659 l 536 986 l 623 986 z "},"$":{"ha":926,"x_min":121,"x_max":807,"o":"m 503 343 l 503 62 q 657 109 600 68 q 714 212 714 150 q 657 308 714 272 q 503 343 601 343 m 121 107 l 172 182 q 295 107 231 136 q 424 69 359 79 l 424 347 q 221 401 291 355 q 151 530 151 448 q 227 671 151 616 q 423 729 302 727 l 424 840 l 503 840 l 503 722 q 644 682 579 709 q 768 611 709 655 l 721 541 q 615 606 668 581 q 503 640 562 630 l 503 427 q 726 365 646 423 q 807 210 807 307 q 722 46 807 112 q 503 -20 636 -20 l 503 -178 l 424 -178 l 424 -16 q 263 24 338 -6 q 121 107 189 54 m 424 431 l 424 646 q 293 611 342 642 q 244 534 244 580 q 289 464 244 490 q 424 431 333 438 z "},"%":{"ha":1171,"x_min":35,"x_max":1135,"o":"m 921 61 q 1011 100 975 61 q 1047 196 1047 138 q 1011 293 1047 254 q 921 332 975 332 q 832 293 867 332 q 796 196 796 254 q 832 99 796 138 q 921 61 867 61 m 921 -20 q 769 42 829 -20 q 708 196 708 103 q 768 350 708 289 q 921 411 829 411 q 1074 350 1014 411 q 1135 196 1135 290 q 1074 41 1135 102 q 921 -20 1013 -20 m 726 713 l 823 713 l 443 0 l 346 0 l 726 713 m 249 378 q 339 417 302 378 q 375 514 375 456 q 339 610 375 572 q 249 648 303 648 q 159 610 195 648 q 123 514 123 572 q 159 417 123 456 q 249 378 195 378 m 249 297 q 96 358 157 297 q 35 513 35 420 q 96 667 35 606 q 249 729 157 729 q 401 668 341 729 q 461 513 461 607 q 401 358 461 419 q 249 297 340 297 z "},"&":{"ha":859,"x_min":93,"x_max":865,"o":"m 607 168 l 376 439 q 238 346 284 399 q 192 227 192 293 q 241 111 192 155 q 371 66 291 66 q 491 92 431 66 q 607 168 550 117 m 806 241 q 772 199 790 220 q 732 160 753 179 l 865 5 l 746 5 l 663 100 q 518 8 587 37 q 372 -21 449 -21 q 169 45 245 -21 q 93 222 93 112 q 148 379 93 311 q 318 505 203 448 l 113 749 l 604 749 l 656 667 l 304 667 l 671 235 q 716 282 700 264 q 746 318 732 300 l 806 241 z "},"'":{"ha":200,"x_min":66,"x_max":135,"o":"m 135 972 l 135 597 l 66 597 l 66 972 l 135 972 z "},"(":{"ha":379,"x_min":79,"x_max":309,"o":"m 264 765 l 309 713 q 203 569 237 651 q 170 374 170 487 q 203 177 170 260 q 309 33 237 94 l 264 -20 q 124 163 168 68 q 79 374 79 258 q 124 584 79 489 q 264 765 168 678 z "},")":{"ha":379,"x_min":71,"x_max":300,"o":"m 115 765 q 255 584 211 678 q 300 374 300 489 q 255 163 300 258 q 115 -20 211 68 l 71 33 q 176 177 142 94 q 210 374 210 260 q 176 569 210 487 q 71 713 142 651 l 115 765 z "},"*":{"ha":694,"x_min":140,"x_max":553,"o":"m 346 494 l 250 354 l 191 396 l 298 530 l 140 572 l 165 642 l 315 586 l 315 749 l 380 749 l 378 586 l 529 639 l 553 571 l 393 528 l 503 396 l 441 351 l 346 494 z "},"+":{"ha":1157,"x_min":172,"x_max":985,"o":"m 612 828 l 612 447 l 985 447 l 985 380 l 612 380 l 612 0 l 546 0 l 546 380 l 172 380 l 172 447 l 546 447 l 546 828 l 612 828 z "},",":{"ha":463,"x_min":168,"x_max":296,"o":"m 168 -118 q 203 -59 189 -88 q 228 0 218 -30 l 222 0 q 188 17 201 0 q 174 61 174 35 q 190 109 174 90 q 232 127 207 127 q 278 103 260 127 q 296 36 296 78 q 270 -46 296 -1 q 193 -142 244 -90 l 168 -118 z "},"-":{"ha":357,"x_min":32,"x_max":325,"o":"m 32 414 l 325 414 l 325 332 l 32 332 l 32 414 z "},".":{"ha":463,"x_min":175,"x_max":288,"o":"m 232 104 q 272 87 256 104 q 288 41 288 69 q 272 -2 288 15 q 232 -20 256 -20 q 191 -2 208 -20 q 175 41 175 15 q 192 86 175 68 q 232 104 208 104 z "},"/":{"ha":386,"x_min":-26,"x_max":412,"o":"m 330 765 l 412 765 l 56 -129 l -26 -129 l 330 765 z "},":":{"ha":463,"x_min":175,"x_max":288,"o":"m 232 104 q 272 87 256 104 q 288 41 288 69 q 272 -2 288 15 q 232 -20 256 -20 q 191 -2 208 -20 q 175 41 175 15 q 192 86 175 68 q 232 104 208 104 m 232 493 q 272 476 256 493 q 288 432 288 459 q 272 387 288 405 q 232 370 256 370 q 192 387 208 370 q 175 432 175 405 q 191 476 175 458 q 232 493 208 493 z "},";":{"ha":463,"x_min":168,"x_max":296,"o":"m 232 493 q 272 476 256 493 q 288 432 288 459 q 272 387 288 405 q 232 370 256 370 q 192 387 208 370 q 175 432 175 405 q 191 476 175 458 q 232 493 208 493 m 168 -118 q 203 -59 189 -88 q 228 0 218 -30 l 222 0 q 188 17 201 0 q 174 61 174 35 q 190 109 174 90 q 232 127 207 127 q 278 103 260 127 q 296 36 296 78 q 270 -46 296 -1 q 193 -142 244 -90 l 168 -118 z "},"<":{"ha":1157,"x_min":179,"x_max":978,"o":"m 978 696 l 285 414 l 978 134 l 978 60 l 179 386 l 179 441 l 978 770 l 978 696 z "},"=":{"ha":1157,"x_min":172,"x_max":985,"o":"m 985 321 l 985 254 l 172 254 l 172 321 l 985 321 m 985 574 l 985 507 l 172 507 l 172 574 l 985 574 z "},">":{"ha":1157,"x_min":179,"x_max":978,"o":"m 978 441 l 978 386 l 179 60 l 179 134 l 872 414 l 179 696 l 179 770 l 978 441 z "},"?":{"ha":501,"x_min":37,"x_max":465,"o":"m 174 182 l 174 302 q 184 361 174 336 q 231 422 195 387 l 346 538 q 366 565 360 551 q 371 597 371 578 q 341 657 371 634 q 262 681 311 681 q 171 654 208 681 q 123 576 135 627 l 37 608 q 115 726 58 686 q 264 765 172 765 q 411 718 357 765 q 465 589 465 671 q 453 530 465 557 q 412 476 440 503 l 294 361 q 274 327 281 347 q 267 279 267 307 l 267 182 l 174 182 m 222 104 q 263 86 246 104 q 279 41 279 68 q 263 -2 279 15 q 222 -20 246 -20 q 182 -2 198 -20 q 165 41 165 15 q 182 86 165 68 q 222 104 198 104 z "},"@":{"ha":1389,"x_min":79,"x_max":1310,"o":"m 880 567 l 921 652 l 985 652 l 890 271 q 881 228 884 241 q 879 208 879 216 q 898 162 879 179 q 951 146 918 146 q 1024 160 987 146 q 1095 201 1061 174 q 1197 340 1160 254 q 1234 532 1234 427 q 1099 814 1234 704 q 754 925 965 925 q 537 891 635 925 q 359 790 439 858 q 209 593 260 705 q 158 347 158 481 q 199 140 158 229 q 323 -17 239 52 q 489 -104 393 -73 q 693 -135 585 -135 q 920 -101 809 -135 q 1124 -4 1031 -68 l 1150 -41 q 939 -154 1050 -117 q 707 -192 828 -192 q 471 -160 577 -192 q 285 -66 366 -129 q 130 119 180 14 q 79 364 79 224 q 138 623 79 503 q 309 836 196 743 q 511 948 398 910 q 755 986 624 986 q 964 956 865 986 q 1133 872 1063 926 q 1265 718 1221 805 q 1310 528 1310 630 q 1267 318 1310 412 q 1145 160 1225 224 q 1044 104 1097 123 q 935 85 990 85 q 837 110 869 85 q 804 187 804 136 q 805 197 804 190 q 806 207 806 203 q 720 116 771 148 q 606 85 668 85 q 448 141 502 85 q 393 307 393 198 q 485 570 393 463 q 708 677 576 677 q 815 650 772 677 q 880 567 859 622 m 821 318 l 863 486 q 811 585 850 549 q 717 621 772 621 q 544 530 612 621 q 476 301 476 439 q 513 184 476 226 q 616 142 551 142 q 745 190 689 142 q 821 318 801 239 z "},"A":{"ha":817,"x_min":0,"x_max":815,"o":"m 241 289 l 571 289 l 406 621 l 241 289 m 0 0 l 367 749 l 444 749 l 815 0 l 714 0 l 612 201 l 199 201 l 100 0 l 0 0 z "},"B":{"ha":907,"x_min":113,"x_max":832,"o":"m 205 453 l 564 453 q 654 480 623 453 q 685 557 685 507 q 655 636 685 610 q 564 663 625 663 l 205 663 l 205 453 m 205 86 l 597 86 q 698 124 661 86 q 734 227 734 161 q 698 329 734 291 q 597 367 661 367 l 205 367 l 205 86 m 113 0 l 113 749 l 555 749 q 723 702 666 749 q 779 562 779 654 q 762 482 779 517 q 711 425 744 447 q 802 340 771 391 q 832 225 832 290 q 764 61 832 121 q 579 0 696 0 l 113 0 z "},"C":{"ha":839,"x_min":53,"x_max":785,"o":"m 710 239 l 785 183 q 644 33 733 85 q 440 -20 554 -20 q 162 91 272 -20 q 53 372 53 202 q 163 654 53 543 q 440 765 273 765 q 629 720 544 765 q 768 590 715 674 l 690 534 q 589 640 655 602 q 440 677 522 677 q 231 591 314 677 q 149 372 149 505 q 231 154 149 240 q 440 68 314 68 q 597 111 528 68 q 710 239 665 155 z "},"D":{"ha":878,"x_min":113,"x_max":827,"o":"m 433 663 l 205 663 l 205 86 l 433 86 q 651 164 572 86 q 730 374 730 241 q 650 583 730 504 q 433 663 569 663 m 433 749 q 719 644 610 749 q 827 372 827 540 q 720 102 827 203 q 433 0 614 0 l 113 0 l 113 749 l 433 749 z "},"E":{"ha":758,"x_min":113,"x_max":732,"o":"m 113 0 l 113 749 l 701 749 l 701 663 l 205 663 l 205 443 l 505 443 l 505 357 l 205 357 l 205 86 l 732 86 l 732 0 l 113 0 z "},"F":{"ha":688,"x_min":113,"x_max":701,"o":"m 113 0 l 113 749 l 701 749 l 701 663 l 205 663 l 205 443 l 505 443 l 505 357 l 205 357 l 205 0 l 113 0 z "},"G":{"ha":859,"x_min":53,"x_max":779,"o":"m 686 203 l 686 313 l 482 313 l 482 399 l 779 399 l 779 174 q 638 30 725 80 q 440 -20 551 -20 q 162 91 272 -20 q 53 372 53 202 q 163 654 53 543 q 440 765 273 765 q 629 720 544 765 q 768 590 715 674 l 690 534 q 589 640 655 602 q 440 677 522 677 q 231 591 314 677 q 149 372 149 505 q 231 154 149 240 q 440 68 314 68 q 580 102 519 68 q 686 203 642 136 z "},"H":{"ha":856,"x_min":113,"x_max":742,"o":"m 113 0 l 113 749 l 207 749 l 207 453 l 648 453 l 648 749 l 742 749 l 742 0 l 648 0 l 648 367 l 207 367 l 207 0 l 113 0 z "},"I":{"ha":321,"x_min":114,"x_max":208,"o":"m 114 0 l 114 753 l 208 753 l 208 0 l 114 0 z "},"J":{"ha":746,"x_min":26,"x_max":643,"o":"m 26 322 l 119 322 l 119 205 q 173 100 119 133 q 346 68 226 68 q 507 109 464 68 q 550 264 550 149 l 550 749 l 643 749 l 643 239 q 570 40 643 100 q 329 -20 498 -20 q 101 35 175 -20 q 26 203 26 90 l 26 322 z "},"K":{"ha":814,"x_min":113,"x_max":803,"o":"m 113 0 l 113 750 l 205 750 l 205 376 l 635 750 l 757 750 l 454 484 l 803 0 l 690 0 l 387 419 l 205 267 l 205 0 l 113 0 z "},"L":{"ha":694,"x_min":113,"x_max":694,"o":"m 113 0 l 113 749 l 205 749 l 205 86 l 694 86 l 694 0 l 113 0 z "},"M":{"ha":993,"x_min":109,"x_max":886,"o":"m 109 0 l 109 749 l 195 749 l 497 290 l 802 749 l 886 749 l 886 0 l 794 0 l 794 585 l 497 142 l 200 585 l 200 0 l 109 0 z "},"N":{"ha":851,"x_min":113,"x_max":741,"o":"m 113 0 l 113 749 l 161 749 l 647 189 l 647 749 l 741 749 l 741 0 l 693 0 l 205 559 l 205 0 l 113 0 z "},"O":{"ha":880,"x_min":53,"x_max":829,"o":"m 440 68 q 649 154 566 68 q 732 372 732 240 q 649 591 732 505 q 440 677 567 677 q 231 591 314 677 q 149 372 149 505 q 231 154 149 240 q 440 68 314 68 m 440 -20 q 162 91 272 -20 q 53 372 53 202 q 163 654 53 543 q 440 765 273 765 q 719 654 608 765 q 829 372 829 543 q 719 91 829 202 q 440 -20 609 -20 z "},"P":{"ha":814,"x_min":109,"x_max":772,"o":"m 201 415 l 532 415 q 638 446 602 415 q 675 538 675 477 q 638 630 675 597 q 536 663 602 663 l 201 663 l 201 415 m 109 0 l 109 749 l 538 749 q 710 694 647 749 q 772 546 772 640 q 712 388 772 448 q 550 328 651 328 l 201 328 l 201 0 l 109 0 z "},"Q":{"ha":880,"x_min":53,"x_max":829,"o":"m 450 69 l 404 165 l 509 165 l 546 86 q 683 196 633 121 q 732 372 732 272 q 649 591 732 505 q 440 677 566 677 q 231 591 314 677 q 149 372 149 505 q 230 155 149 241 q 437 69 312 69 l 450 69 m 490 -17 q 467 -19 479 -18 q 432 -20 454 -20 q 162 92 271 -20 q 53 372 53 204 q 163 654 53 543 q 440 765 273 765 q 719 654 608 765 q 829 372 829 543 q 765 149 829 245 q 585 4 701 52 l 635 -98 l 530 -98 l 490 -17 z "},"R":{"ha":829,"x_min":109,"x_max":782,"o":"m 201 415 l 532 415 q 638 446 602 415 q 675 538 675 477 q 638 630 675 597 q 536 663 602 663 l 201 663 l 201 415 m 109 0 l 109 749 l 538 749 q 710 693 648 749 q 772 541 772 638 q 724 401 772 459 q 595 329 675 343 l 782 0 l 679 0 l 492 328 l 201 328 l 201 0 l 109 0 z "},"S":{"ha":829,"x_min":41,"x_max":762,"o":"m 41 113 l 96 193 q 261 99 175 132 q 431 66 347 66 q 599 111 534 66 q 664 224 664 155 q 617 314 664 279 q 489 357 571 350 q 432 361 469 359 q 180 404 248 374 q 101 469 128 429 q 74 558 74 509 q 155 707 74 648 q 364 765 235 765 q 549 734 458 765 q 722 643 640 703 l 668 566 q 523 649 599 621 q 366 677 446 677 q 226 645 281 677 q 171 562 171 612 q 180 526 171 543 q 207 496 189 510 q 406 452 253 461 q 515 443 477 448 q 696 370 629 430 q 762 221 762 309 q 671 48 762 116 q 432 -20 580 -20 q 224 13 320 -20 q 41 113 128 45 z "},"T":{"ha":579,"x_min":-72,"x_max":652,"o":"m 243 0 l 243 663 l -72 663 l -72 749 l 652 749 l 652 663 l 336 663 l 336 0 l 243 0 z "},"U":{"ha":804,"x_min":93,"x_max":710,"o":"m 186 749 l 186 264 q 230 107 186 147 q 401 68 273 68 q 573 107 530 68 q 616 264 616 147 l 616 749 l 710 749 l 710 239 q 638 40 710 100 q 401 -20 566 -20 q 165 40 237 -20 q 93 239 93 100 l 93 749 l 186 749 z "},"V":{"ha":762,"x_min":-9,"x_max":772,"o":"m 410 0 l 351 0 l -9 749 l 92 749 l 380 149 l 669 749 l 772 749 l 410 0 z "},"W":{"ha":1000,"x_min":-8,"x_max":1008,"o":"m 236 0 l -8 749 l 83 749 l 269 171 l 460 749 l 543 749 l 733 172 l 920 749 l 1008 749 l 765 0 l 697 0 l 500 603 l 304 0 l 236 0 z "},"X":{"ha":762,"x_min":20,"x_max":749,"o":"m 20 0 l 325 376 l 24 749 l 138 749 l 383 449 l 628 749 l 741 749 l 439 380 l 749 0 l 629 0 l 380 309 l 129 0 l 20 0 z "},"Y":{"ha":631,"x_min":-69,"x_max":700,"o":"m 268 0 l 268 375 l -69 749 l 47 749 l 315 453 l 582 749 l 700 749 l 361 374 l 361 0 l 268 0 z "},"Z":{"ha":707,"x_min":-3,"x_max":672,"o":"m -3 0 l 503 663 l 40 663 l 40 749 l 672 749 l 178 86 l 669 86 l 669 0 l -3 0 z "},"[":{"ha":379,"x_min":78,"x_max":294,"o":"m 78 0 l 78 749 l 294 749 l 294 668 l 164 668 l 164 81 l 294 81 l 294 0 l 78 0 z "},"\\":{"ha":386,"x_min":-26,"x_max":412,"o":"m 330 -129 l -26 765 l 56 765 l 412 -129 l 330 -129 z "},"]":{"ha":379,"x_min":85,"x_max":302,"o":"m 302 0 l 85 0 l 85 81 l 215 81 l 215 668 l 85 668 l 85 749 l 302 749 l 302 0 z "},"^":{"ha":1389,"x_min":286,"x_max":1101,"o":"m 742 989 l 1101 611 l 1004 611 l 694 920 l 383 611 l 286 611 l 647 989 l 742 989 z "},"_":{"ha":694,"x_min":0,"x_max":694,"o":"m 694 -260 l 694 -328 l 0 -328 l 0 -260 l 694 -260 z "},"`":{"ha":694,"x_min":187,"x_max":432,"o":"m 370 669 l 187 907 l 290 907 l 432 669 l 370 669 z "},"a":{"ha":624,"x_min":-12,"x_max":636,"o":"m 197 224 l 424 224 l 311 446 l 197 224 m -12 0 l 282 579 l 339 579 l 636 0 l 539 0 l 464 147 l 158 147 l 83 0 l -12 0 z "},"b":{"ha":755,"x_min":100,"x_max":676,"o":"m 453 494 l 191 494 l 191 358 l 454 358 q 520 375 498 358 q 542 427 542 393 q 520 477 542 460 q 453 494 498 494 m 484 273 l 191 273 l 191 83 l 484 83 q 557 109 531 83 q 583 179 583 134 q 557 249 583 224 q 484 273 531 273 m 100 0 l 100 578 l 456 578 q 589 542 544 578 q 635 435 635 505 q 621 372 635 399 q 579 328 606 345 q 652 261 627 300 q 676 174 676 222 q 622 46 676 93 q 473 0 568 0 l 100 0 z "},"c":{"ha":765,"x_min":49,"x_max":711,"o":"m 711 142 q 582 23 662 64 q 399 -18 501 -18 q 148 68 246 -18 q 49 288 49 155 q 148 508 49 420 q 399 595 246 595 q 571 559 494 595 q 696 458 648 524 l 624 408 q 529 485 588 458 q 399 511 471 511 q 215 448 288 511 q 142 289 142 385 q 215 130 142 193 q 399 66 288 66 q 535 97 476 66 q 639 192 594 127 l 711 142 z "},"d":{"ha":717,"x_min":100,"x_max":672,"o":"m 357 579 q 585 498 498 579 q 672 288 672 417 q 587 78 672 157 q 357 0 502 0 l 100 0 l 100 579 l 357 579 m 358 496 l 191 496 l 191 83 l 358 83 q 520 139 461 83 q 579 289 579 194 q 518 438 579 380 q 358 496 457 496 z "},"e":{"ha":697,"x_min":98,"x_max":667,"o":"m 98 0 l 98 579 l 642 579 l 642 494 l 189 494 l 189 350 l 486 350 l 486 267 l 189 267 l 189 83 l 667 83 l 667 0 l 98 0 z "},"f":{"ha":653,"x_min":98,"x_max":633,"o":"m 189 267 l 189 0 l 98 0 l 98 579 l 633 579 l 633 494 l 189 494 l 189 350 l 476 350 l 476 267 l 189 267 z "},"g":{"ha":798,"x_min":49,"x_max":730,"o":"m 492 225 l 492 309 l 730 309 l 730 134 q 600 20 680 59 q 412 -18 519 -18 q 151 68 252 -18 q 49 288 49 155 q 151 508 49 420 q 412 595 254 595 q 590 560 513 595 q 720 458 668 526 l 650 408 q 550 484 613 456 q 412 511 488 511 q 218 448 294 511 q 142 289 142 385 q 217 130 142 193 q 412 66 293 66 q 550 94 487 66 q 639 163 614 121 l 639 225 l 492 225 z "},"h":{"ha":785,"x_min":98,"x_max":686,"o":"m 189 269 l 189 0 l 98 0 l 98 579 l 189 579 l 189 354 l 596 354 l 596 579 l 686 579 l 686 0 l 596 0 l 596 269 l 189 269 z "},"i":{"ha":293,"x_min":100,"x_max":192,"o":"m 100 0 l 100 581 l 192 581 l 192 0 l 100 0 z "},"j":{"ha":621,"x_min":33,"x_max":529,"o":"m 33 248 l 123 248 l 123 186 q 163 94 123 123 q 289 65 203 65 q 407 100 375 65 q 439 235 439 136 l 439 578 l 529 578 l 529 205 q 471 34 529 85 q 278 -18 413 -18 q 94 29 154 -18 q 33 174 33 77 l 33 248 z "},"k":{"ha":660,"x_min":100,"x_max":653,"o":"m 100 0 l 100 578 l 191 578 l 191 321 l 497 578 l 616 578 l 374 372 l 653 0 l 551 0 l 310 319 l 191 218 l 191 0 l 100 0 z "},"l":{"ha":624,"x_min":98,"x_max":619,"o":"m 98 0 l 98 579 l 189 579 l 189 83 l 619 83 l 619 0 l 98 0 z "},"m":{"ha":823,"x_min":98,"x_max":724,"o":"m 98 0 l 98 579 l 174 579 l 411 240 l 648 579 l 724 579 l 724 0 l 633 0 l 633 416 l 411 94 l 189 416 l 189 0 l 98 0 z "},"n":{"ha":704,"x_min":100,"x_max":604,"o":"m 100 0 l 100 579 l 147 579 l 515 172 l 515 579 l 604 579 l 604 0 l 557 0 l 189 406 l 189 0 l 100 0 z "},"o":{"ha":807,"x_min":49,"x_max":758,"o":"m 403 66 q 592 129 519 66 q 665 289 665 192 q 592 448 665 385 q 403 511 518 511 q 215 449 288 511 q 142 289 142 386 q 215 129 142 192 q 403 66 288 66 m 403 -18 q 149 69 248 -18 q 49 289 49 157 q 148 508 49 422 q 403 595 248 595 q 659 509 559 595 q 758 289 758 422 q 659 69 758 156 q 403 -18 559 -18 z "},"p":{"ha":739,"x_min":100,"x_max":710,"o":"m 191 338 l 521 338 q 592 358 567 338 q 616 416 616 378 q 593 474 616 454 q 525 494 569 494 l 191 494 l 191 338 m 191 253 l 191 0 l 100 0 l 100 579 l 521 579 q 660 537 610 579 q 710 418 710 494 q 661 299 710 345 q 530 253 611 253 l 191 253 z "},"q":{"ha":807,"x_min":49,"x_max":758,"o":"m 518 83 q 627 167 588 113 q 665 289 665 221 q 592 448 665 385 q 403 511 518 511 q 215 449 288 511 q 142 289 142 386 q 214 130 142 193 q 396 66 286 66 q 408 67 400 66 q 421 68 416 68 l 363 139 l 472 139 l 518 83 m 575 17 l 654 -79 l 543 -79 l 486 -12 q 426 -17 441 -16 q 403 -18 410 -18 q 149 69 248 -18 q 49 289 49 157 q 148 508 49 422 q 403 595 248 595 q 659 509 559 595 q 758 289 758 422 q 710 129 758 199 q 575 17 662 58 z "},"r":{"ha":753,"x_min":100,"x_max":705,"o":"m 191 338 l 498 338 q 570 358 545 338 q 595 416 595 378 q 570 474 595 454 q 498 494 545 494 l 191 494 l 191 338 m 191 253 l 191 0 l 100 0 l 100 578 l 498 578 q 637 535 587 578 q 688 416 688 492 q 648 310 688 355 q 545 254 608 264 l 705 0 l 607 0 l 443 253 l 191 253 z "},"s":{"ha":688,"x_min":49,"x_max":625,"o":"m 49 74 l 93 150 q 223 87 153 110 q 358 65 294 65 q 483 97 435 65 q 530 178 530 128 q 487 251 530 227 q 350 278 444 275 q 133 315 192 280 q 74 429 74 349 q 139 549 74 504 q 313 595 203 595 q 457 574 387 595 q 593 511 528 553 l 547 436 q 431 493 493 473 q 311 513 368 513 q 205 490 245 513 q 165 429 165 467 q 206 374 165 391 q 346 358 246 358 q 555 311 484 358 q 625 172 625 264 q 554 36 625 90 q 368 -18 482 -18 q 201 6 284 -18 q 49 74 118 30 z "},"t":{"ha":562,"x_min":-8,"x_max":571,"o":"m 236 0 l 236 498 l -8 498 l -8 579 l 571 579 l 571 498 l 326 498 l 326 0 l 236 0 z "},"u":{"ha":772,"x_min":100,"x_max":672,"o":"m 100 578 l 191 578 l 191 207 q 230 94 191 123 q 386 65 269 65 q 543 94 503 65 q 582 207 582 123 l 582 578 l 672 578 l 672 183 q 605 29 672 77 q 385 -18 537 -18 q 166 28 233 -18 q 100 183 100 75 l 100 578 z "},"v":{"ha":656,"x_min":14,"x_max":642,"o":"m 351 0 l 304 0 l 14 579 l 110 579 l 328 146 l 542 579 l 642 579 l 351 0 z "},"w":{"ha":851,"x_min":12,"x_max":840,"o":"m 208 0 l 12 579 l 102 579 l 243 155 l 389 579 l 464 579 l 610 155 l 751 579 l 840 579 l 646 0 l 581 0 l 427 446 l 272 0 l 208 0 z "},"x":{"ha":627,"x_min":14,"x_max":612,"o":"m 14 0 l 257 290 l 17 579 l 126 579 l 313 357 l 498 579 l 610 579 l 368 293 l 612 0 l 503 0 l 313 227 l 121 0 l 14 0 z "},"y":{"ha":621,"x_min":1,"x_max":619,"o":"m 265 0 l 265 296 l 1 579 l 118 579 l 310 374 l 498 579 l 619 579 l 354 297 l 354 0 l 265 0 z "},"z":{"ha":607,"x_min":24,"x_max":566,"o":"m 24 0 l 399 494 l 57 494 l 57 579 l 566 579 l 187 83 l 562 83 l 562 0 l 24 0 z "},"{":{"ha":694,"x_min":118,"x_max":579,"o":"m 579 929 l 554 929 q 434 896 465 929 q 403 757 403 862 l 403 593 q 373 430 403 479 q 269 359 344 381 q 373 290 344 338 q 403 126 403 241 l 403 -37 q 433 -176 403 -142 q 549 -210 464 -210 q 564 -209 553 -210 q 579 -208 574 -208 l 579 -281 l 547 -281 q 367 -232 414 -281 q 319 -31 319 -182 l 319 135 q 281 282 319 239 q 149 325 242 325 q 134 324 144 325 q 118 323 124 323 l 118 397 q 134 397 124 397 q 149 396 144 396 q 281 439 242 396 q 319 586 319 481 l 319 750 q 367 951 319 901 q 547 1002 414 1002 l 579 1002 l 579 929 z "},"|":{"ha":694,"x_min":311,"x_max":385,"o":"m 385 1061 l 385 -328 l 311 -328 l 311 1061 l 385 1061 z "},"}":{"ha":694,"x_min":117,"x_max":578,"o":"m 376 750 l 376 586 q 415 439 376 481 q 547 396 454 396 q 562 397 552 396 q 578 397 572 397 l 578 323 q 562 324 572 323 q 547 325 552 325 q 415 282 454 325 q 376 135 376 239 l 376 -31 q 329 -231 376 -182 q 149 -281 282 -281 l 117 -281 l 117 -208 l 143 -208 q 262 -175 231 -208 q 293 -37 293 -142 l 293 126 q 322 290 293 242 q 427 359 351 338 q 322 429 351 381 q 293 593 293 477 l 293 757 q 262 897 293 863 q 147 930 232 930 q 132 930 142 930 q 117 929 122 929 l 117 1002 l 149 1002 q 329 951 281 1002 q 376 750 376 901 z "},"~":{"ha":1157,"x_min":121,"x_max":1038,"o":"m 1038 432 q 903 359 968 383 q 775 335 838 335 q 599 374 708 335 q 579 380 585 378 q 568 385 576 382 q 383 428 449 428 q 264 402 327 428 q 121 319 202 376 l 121 396 q 258 470 193 446 q 383 494 323 494 q 568 453 454 494 q 580 448 575 450 q 601 441 586 446 q 775 400 714 400 q 895 426 833 400 q 1038 509 958 452 l 1038 432 z "},"Ä":{"ha":817,"x_min":0,"x_max":815,"o":"m 241 289 l 571 289 l 406 621 l 241 289 m 0 0 l 367 749 l 444 749 l 815 0 l 714 0 l 612 201 l 199 201 l 100 0 l 0 0 m 457 949 q 474 992 457 974 q 517 1010 492 1010 q 560 992 542 1010 q 578 949 578 974 q 560 905 578 923 q 517 888 542 888 q 474 905 492 888 q 457 949 457 923 m 239 949 q 257 992 239 974 q 300 1010 275 1010 q 342 992 325 1010 q 359 949 359 974 q 342 905 359 923 q 300 888 325 888 q 257 905 275 888 q 239 949 239 923 z "},"Å":{"ha":817,"x_min":0,"x_max":815,"o":"m 304 987 q 334 915 304 945 q 407 885 364 885 q 479 915 449 885 q 509 987 509 945 q 479 1059 509 1029 q 407 1089 449 1089 q 334 1060 364 1089 q 304 987 304 1030 m 243 987 q 291 1103 243 1055 q 407 1150 338 1150 q 522 1103 475 1150 q 570 987 570 1055 q 522 871 570 920 q 407 823 475 823 q 291 871 338 823 q 243 987 243 920 m 241 289 l 571 289 l 406 621 l 241 289 m 0 0 l 367 749 l 444 749 l 815 0 l 714 0 l 612 201 l 199 201 l 100 0 l 0 0 z "},"Ç":{"ha":839,"x_min":53,"x_max":785,"o":"m 710 239 l 785 183 q 644 33 733 85 q 440 -20 554 -20 q 162 91 272 -20 q 53 372 53 202 q 163 654 53 543 q 440 765 273 765 q 629 720 544 765 q 768 590 715 674 l 690 534 q 589 640 655 602 q 440 677 522 677 q 231 591 314 677 q 149 372 149 505 q 231 154 149 240 q 440 68 314 68 q 597 111 528 68 q 710 239 665 155 m 275 -283 l 275 -232 q 374 -251 339 -245 q 435 -256 408 -256 q 501 -240 478 -256 q 524 -195 524 -224 q 500 -140 524 -157 q 427 -123 477 -123 q 407 -124 414 -123 q 395 -125 401 -124 l 395 0 l 437 0 l 437 -75 l 451 -75 q 561 -105 523 -75 q 599 -192 599 -135 q 559 -280 599 -250 q 446 -311 520 -311 q 370 -305 409 -311 q 275 -283 331 -299 z "},"É":{"ha":758,"x_min":113,"x_max":732,"o":"m 113 0 l 113 749 l 701 749 l 701 663 l 205 663 l 205 443 l 505 443 l 505 357 l 205 357 l 205 86 l 732 86 l 732 0 l 113 0 m 395 840 l 333 840 l 475 1078 l 578 1078 l 395 840 z "},"Ñ":{"ha":851,"x_min":113,"x_max":741,"o":"m 113 0 l 113 749 l 161 749 l 647 189 l 647 749 l 741 749 l 741 0 l 693 0 l 205 559 l 205 0 l 113 0 m 623 1019 q 572 927 605 958 q 493 896 540 896 q 473 898 484 896 q 449 903 462 899 l 383 924 q 365 928 372 927 q 347 929 357 929 q 311 917 328 929 q 285 881 295 904 l 231 881 q 279 972 245 941 q 363 1004 313 1004 q 382 1003 374 1004 q 399 999 391 1002 l 464 978 q 485 972 475 974 q 502 970 495 970 q 539 982 524 970 q 567 1019 555 994 l 623 1019 z "},"Ö":{"ha":880,"x_min":53,"x_max":829,"o":"m 440 68 q 649 154 566 68 q 732 372 732 240 q 649 591 732 505 q 440 677 567 677 q 231 591 314 677 q 149 372 149 505 q 231 154 149 240 q 440 68 314 68 m 440 -20 q 162 91 272 -20 q 53 372 53 202 q 163 654 53 543 q 440 765 273 765 q 719 654 608 765 q 829 372 829 543 q 719 91 829 202 q 440 -20 609 -20 m 489 949 q 506 992 489 974 q 549 1010 524 1010 q 592 992 574 1010 q 610 949 610 974 q 592 905 610 923 q 549 888 574 888 q 506 905 524 888 q 489 949 489 923 m 271 949 q 289 992 271 974 q 332 1010 307 1010 q 374 992 357 1010 q 391 949 391 974 q 374 905 391 923 q 332 888 357 888 q 289 905 307 888 q 271 949 271 923 z "},"Ü":{"ha":804,"x_min":93,"x_max":710,"o":"m 186 749 l 186 264 q 230 107 186 147 q 401 68 273 68 q 573 107 530 68 q 616 264 616 147 l 616 749 l 710 749 l 710 239 q 638 40 710 100 q 401 -20 566 -20 q 165 40 237 -20 q 93 239 93 100 l 93 749 l 186 749 m 452 949 q 469 992 452 974 q 511 1010 486 1010 q 554 992 536 1010 q 572 949 572 974 q 554 905 572 923 q 511 888 536 888 q 469 905 486 888 q 452 949 452 923 m 233 949 q 251 992 233 974 q 294 1010 269 1010 q 337 992 319 1010 q 354 949 354 974 q 337 905 354 923 q 294 888 319 888 q 251 905 269 888 q 233 949 233 923 z "},"á":{"ha":624,"x_min":-12,"x_max":636,"o":"m 197 224 l 424 224 l 311 446 l 197 224 m -12 0 l 282 579 l 339 579 l 636 0 l 539 0 l 464 147 l 158 147 l 83 0 l -12 0 m 290 669 l 228 669 l 370 907 l 473 907 l 290 669 z "},"à":{"ha":624,"x_min":-12,"x_max":636,"o":"m 197 224 l 424 224 l 311 446 l 197 224 m -12 0 l 282 579 l 339 579 l 636 0 l 539 0 l 464 147 l 158 147 l 83 0 l -12 0 m 335 669 l 153 907 l 256 907 l 397 669 l 335 669 z "},"â":{"ha":624,"x_min":-12,"x_max":636,"o":"m 197 224 l 424 224 l 311 446 l 197 224 m -12 0 l 282 579 l 339 579 l 636 0 l 539 0 l 464 147 l 158 147 l 83 0 l -12 0 m 125 669 l 261 907 l 364 907 l 500 669 l 437 669 l 313 848 l 188 669 l 125 669 z "},"ä":{"ha":624,"x_min":-12,"x_max":636,"o":"m 197 224 l 424 224 l 311 446 l 197 224 m -12 0 l 282 579 l 339 579 l 636 0 l 539 0 l 464 147 l 158 147 l 83 0 l -12 0 m 361 778 q 379 821 361 803 q 421 839 396 839 q 464 821 446 839 q 482 778 482 803 q 464 734 482 752 q 421 717 446 717 q 379 734 396 717 q 361 778 361 752 m 143 778 q 161 821 143 803 q 204 839 179 839 q 247 821 229 839 q 264 778 264 803 q 247 734 264 752 q 204 717 229 717 q 161 734 179 717 q 143 778 143 752 z "},"ã":{"ha":624,"x_min":-12,"x_max":636,"o":"m 197 224 l 424 224 l 311 446 l 197 224 m -12 0 l 282 579 l 339 579 l 636 0 l 539 0 l 464 147 l 158 147 l 83 0 l -12 0 m 509 848 q 458 756 491 787 q 379 725 426 725 q 359 727 370 725 q 335 732 348 728 l 269 753 q 251 757 258 756 q 233 758 243 758 q 197 746 214 758 q 171 710 181 733 l 117 710 q 165 802 132 770 q 249 833 199 833 q 269 832 260 833 q 285 828 277 831 l 350 807 q 371 801 361 803 q 388 799 381 799 q 425 811 410 799 q 453 848 441 823 l 509 848 z "},"å":{"ha":624,"x_min":-12,"x_max":636,"o":"m 197 224 l 424 224 l 311 446 l 197 224 m -12 0 l 282 579 l 339 579 l 636 0 l 539 0 l 464 147 l 158 147 l 83 0 l -12 0 m 211 819 q 240 747 211 777 q 313 718 270 718 q 385 748 355 718 q 416 819 416 777 q 385 892 416 862 q 313 922 355 922 q 240 892 270 922 q 211 819 211 863 m 150 821 q 197 936 150 889 q 313 983 244 983 q 429 936 380 983 q 477 821 477 888 q 429 705 477 753 q 313 657 380 657 q 197 705 245 657 q 150 821 150 753 z "},"ç":{"ha":765,"x_min":49,"x_max":711,"o":"m 711 142 q 582 23 662 64 q 399 -18 501 -18 q 148 68 246 -18 q 49 288 49 155 q 148 508 49 420 q 399 595 246 595 q 571 559 494 595 q 696 458 648 524 l 624 408 q 529 485 588 458 q 399 511 471 511 q 215 448 288 511 q 142 289 142 385 q 215 130 142 193 q 399 66 288 66 q 535 97 476 66 q 639 192 594 127 l 711 142 m 220 -283 l 220 -232 q 319 -251 285 -245 q 380 -256 354 -256 q 447 -240 424 -256 q 469 -195 469 -224 q 446 -140 469 -157 q 372 -123 422 -123 q 353 -124 359 -123 q 340 -125 347 -124 l 340 0 l 383 0 l 383 -75 l 397 -75 q 507 -105 469 -75 q 545 -192 545 -135 q 505 -280 545 -250 q 391 -311 466 -311 q 316 -305 355 -311 q 220 -283 277 -299 z "},"é":{"ha":697,"x_min":98,"x_max":667,"o":"m 98 0 l 98 579 l 642 579 l 642 494 l 189 494 l 189 350 l 486 350 l 486 267 l 189 267 l 189 83 l 667 83 l 667 0 l 98 0 m 353 669 l 290 669 l 432 907 l 535 907 l 353 669 z "},"è":{"ha":697,"x_min":98,"x_max":667,"o":"m 98 0 l 98 579 l 642 579 l 642 494 l 189 494 l 189 350 l 486 350 l 486 267 l 189 267 l 189 83 l 667 83 l 667 0 l 98 0 m 397 669 l 215 907 l 318 907 l 460 669 l 397 669 z "},"ê":{"ha":697,"x_min":98,"x_max":667,"o":"m 98 0 l 98 579 l 642 579 l 642 494 l 189 494 l 189 350 l 486 350 l 486 267 l 189 267 l 189 83 l 667 83 l 667 0 l 98 0 m 188 669 l 323 907 l 427 907 l 562 669 l 500 669 l 375 848 l 250 669 l 188 669 z "},"ë":{"ha":697,"x_min":98,"x_max":667,"o":"m 98 0 l 98 579 l 642 579 l 642 494 l 189 494 l 189 350 l 486 350 l 486 267 l 189 267 l 189 83 l 667 83 l 667 0 l 98 0 m 424 778 q 441 821 424 803 q 484 839 458 839 q 527 821 509 839 q 545 778 545 803 q 527 734 545 752 q 484 717 509 717 q 441 734 458 717 q 424 778 424 752 m 205 778 q 223 821 205 803 q 267 839 241 839 q 309 821 292 839 q 326 778 326 803 q 309 734 326 752 q 267 717 292 717 q 223 734 241 717 q 205 778 205 752 z "},"í":{"ha":293,"x_min":62,"x_max":307,"o":"m 100 0 l 100 581 l 192 581 l 192 0 l 100 0 m 125 669 l 62 669 l 204 907 l 307 907 l 125 669 z "},"ì":{"ha":293,"x_min":-13,"x_max":232,"o":"m 100 0 l 100 581 l 192 581 l 192 0 l 100 0 m 170 669 l -13 907 l 90 907 l 232 669 l 170 669 z "},"î":{"ha":293,"x_min":-40,"x_max":334,"o":"m 100 0 l 100 581 l 192 581 l 192 0 l 100 0 m -40 669 l 96 907 l 199 907 l 334 669 l 272 669 l 147 848 l 22 669 l -40 669 z "},"ï":{"ha":293,"x_min":-22,"x_max":317,"o":"m 100 0 l 100 581 l 192 581 l 192 0 l 100 0 m 196 778 q 213 821 196 803 q 256 839 231 839 q 299 821 281 839 q 317 778 317 803 q 299 734 317 752 q 256 717 281 717 q 213 734 231 717 q 196 778 196 752 m -22 778 q -4 821 -22 803 q 39 839 14 839 q 81 821 64 839 q 98 778 98 803 q 81 734 98 752 q 39 717 64 717 q -4 734 14 717 q -22 778 -22 752 z "},"ñ":{"ha":704,"x_min":100,"x_max":604,"o":"m 100 0 l 100 579 l 147 579 l 515 172 l 515 579 l 604 579 l 604 0 l 557 0 l 189 406 l 189 0 l 100 0 m 549 848 q 498 756 531 787 q 419 725 466 725 q 399 727 410 725 q 375 732 388 728 l 309 753 q 291 757 298 756 q 273 758 283 758 q 237 746 254 758 q 211 710 221 733 l 157 710 q 205 802 172 770 q 289 833 239 833 q 309 832 300 833 q 325 828 317 831 l 390 807 q 411 801 401 803 q 428 799 421 799 q 465 811 450 799 q 493 848 481 823 l 549 848 z "},"ó":{"ha":807,"x_min":49,"x_max":758,"o":"m 403 66 q 592 129 519 66 q 665 289 665 192 q 592 448 665 385 q 403 511 518 511 q 215 449 288 511 q 142 289 142 386 q 215 129 142 192 q 403 66 288 66 m 403 -18 q 149 69 248 -18 q 49 289 49 157 q 148 508 49 422 q 403 595 248 595 q 659 509 559 595 q 758 289 758 422 q 659 69 758 156 q 403 -18 559 -18 m 382 669 l 319 669 l 461 907 l 564 907 l 382 669 z "},"ò":{"ha":807,"x_min":49,"x_max":758,"o":"m 403 66 q 592 129 519 66 q 665 289 665 192 q 592 448 665 385 q 403 511 518 511 q 215 449 288 511 q 142 289 142 386 q 215 129 142 192 q 403 66 288 66 m 403 -18 q 149 69 248 -18 q 49 289 49 157 q 148 508 49 422 q 403 595 248 595 q 659 509 559 595 q 758 289 758 422 q 659 69 758 156 q 403 -18 559 -18 m 427 669 l 244 907 l 347 907 l 489 669 l 427 669 z "},"ô":{"ha":807,"x_min":49,"x_max":758,"o":"m 403 66 q 592 129 519 66 q 665 289 665 192 q 592 448 665 385 q 403 511 518 511 q 215 449 288 511 q 142 289 142 386 q 215 129 142 192 q 403 66 288 66 m 403 -18 q 149 69 248 -18 q 49 289 49 157 q 148 508 49 422 q 403 595 248 595 q 659 509 559 595 q 758 289 758 422 q 659 69 758 156 q 403 -18 559 -18 m 217 669 l 353 907 l 456 907 l 591 669 l 529 669 l 404 848 l 279 669 l 217 669 z "},"ö":{"ha":807,"x_min":49,"x_max":758,"o":"m 403 66 q 592 129 519 66 q 665 289 665 192 q 592 448 665 385 q 403 511 518 511 q 215 449 288 511 q 142 289 142 386 q 215 129 142 192 q 403 66 288 66 m 403 -18 q 149 69 248 -18 q 49 289 49 157 q 148 508 49 422 q 403 595 248 595 q 659 509 559 595 q 758 289 758 422 q 659 69 758 156 q 403 -18 559 -18 m 453 778 q 470 821 453 803 q 513 839 488 839 q 556 821 538 839 q 574 778 574 803 q 556 734 574 752 q 513 717 538 717 q 470 734 488 717 q 453 778 453 752 m 235 778 q 253 821 235 803 q 296 839 271 839 q 338 821 321 839 q 355 778 355 803 q 338 734 355 752 q 296 717 321 717 q 253 734 271 717 q 235 778 235 752 z "},"õ":{"ha":807,"x_min":49,"x_max":758,"o":"m 403 66 q 592 129 519 66 q 665 289 665 192 q 592 448 665 385 q 403 511 518 511 q 215 449 288 511 q 142 289 142 386 q 215 129 142 192 q 403 66 288 66 m 403 -18 q 149 69 248 -18 q 49 289 49 157 q 148 508 49 422 q 403 595 248 595 q 659 509 559 595 q 758 289 758 422 q 659 69 758 156 q 403 -18 559 -18 m 600 848 q 550 756 583 787 q 471 725 517 725 q 451 727 462 725 q 427 732 439 728 l 361 753 q 342 757 350 756 q 325 758 334 758 q 289 746 305 758 q 262 710 273 733 l 208 710 q 257 802 223 770 q 340 833 291 833 q 360 832 351 833 q 376 828 369 831 l 441 807 q 463 801 452 803 q 479 799 473 799 q 517 811 501 799 q 545 848 532 823 l 600 848 z "},"ú":{"ha":772,"x_min":100,"x_max":672,"o":"m 100 578 l 191 578 l 191 207 q 230 94 191 123 q 386 65 269 65 q 543 94 503 65 q 582 207 582 123 l 582 578 l 672 578 l 672 183 q 605 29 672 77 q 385 -18 537 -18 q 166 28 233 -18 q 100 183 100 75 l 100 578 m 363 669 l 301 669 l 443 907 l 546 907 l 363 669 z "},"ù":{"ha":772,"x_min":100,"x_max":672,"o":"m 100 578 l 191 578 l 191 207 q 230 94 191 123 q 386 65 269 65 q 543 94 503 65 q 582 207 582 123 l 582 578 l 672 578 l 672 183 q 605 29 672 77 q 385 -18 537 -18 q 166 28 233 -18 q 100 183 100 75 l 100 578 m 408 669 l 226 907 l 329 907 l 471 669 l 408 669 z "},"û":{"ha":772,"x_min":100,"x_max":672,"o":"m 100 578 l 191 578 l 191 207 q 230 94 191 123 q 386 65 269 65 q 543 94 503 65 q 582 207 582 123 l 582 578 l 672 578 l 672 183 q 605 29 672 77 q 385 -18 537 -18 q 166 28 233 -18 q 100 183 100 75 l 100 578 m 199 669 l 334 907 l 437 907 l 573 669 l 511 669 l 386 848 l 261 669 l 199 669 z "},"ü":{"ha":772,"x_min":100,"x_max":672,"o":"m 100 578 l 191 578 l 191 207 q 230 94 191 123 q 386 65 269 65 q 543 94 503 65 q 582 207 582 123 l 582 578 l 672 578 l 672 183 q 605 29 672 77 q 385 -18 537 -18 q 166 28 233 -18 q 100 183 100 75 l 100 578 m 435 778 q 452 821 435 803 q 494 839 469 839 q 537 821 519 839 q 555 778 555 803 q 537 734 555 752 q 494 717 519 717 q 452 734 469 717 q 435 778 435 752 m 216 778 q 234 821 216 803 q 277 839 252 839 q 320 821 302 839 q 337 778 337 803 q 320 734 337 752 q 277 717 302 717 q 234 734 252 717 q 216 778 216 752 z "},"†":{"ha":694,"x_min":113,"x_max":582,"o":"m 304 -104 l 304 458 l 113 458 l 113 538 l 304 538 l 304 749 l 392 749 l 392 538 l 582 538 l 582 458 l 392 458 l 392 -104 l 304 -104 z "},"°":{"ha":457,"x_min":40,"x_max":416,"o":"m 370 796 q 329 896 370 854 q 229 937 288 937 q 129 896 171 937 q 87 796 87 854 q 129 696 87 737 q 229 656 170 656 q 329 696 288 656 q 370 796 370 737 m 229 985 q 362 929 307 985 q 416 796 416 874 q 361 663 416 718 q 228 607 306 607 q 94 662 149 607 q 40 796 40 717 q 95 930 40 875 q 229 985 151 985 z "},"¢":{"ha":926,"x_min":179,"x_max":766,"o":"m 450 136 l 450 574 q 321 499 371 560 q 272 354 272 439 q 320 211 272 269 q 450 136 368 153 m 679 473 q 617 539 654 515 q 530 572 581 563 l 530 135 q 624 177 587 149 q 692 257 661 205 l 766 207 q 670 99 730 139 q 530 50 610 60 l 530 -178 l 450 -178 l 450 49 q 254 149 328 65 q 179 354 179 233 q 254 559 179 475 q 450 659 328 643 l 450 840 l 530 840 l 530 657 q 657 616 602 650 q 753 525 713 583 l 679 473 z "},"£":{"ha":926,"x_min":123,"x_max":827,"o":"m 161 0 l 167 86 l 249 86 l 229 311 l 123 311 l 123 399 l 222 399 l 215 457 q 215 460 215 458 q 212 496 212 485 q 286 667 212 604 q 488 729 359 729 q 656 698 574 729 q 823 603 739 667 l 768 530 q 619 615 686 588 q 490 642 551 642 q 355 599 406 642 q 304 485 304 556 q 307 443 304 473 q 307 437 307 439 l 311 399 l 543 399 l 543 311 l 319 311 l 339 86 l 827 86 l 827 0 l 161 0 z "},"§":{"ha":694,"x_min":122,"x_max":571,"o":"m 160 52 l 249 52 l 249 49 q 275 -18 249 5 q 350 -41 302 -41 q 415 -22 391 -41 q 439 32 439 -2 q 415 88 439 63 q 322 150 391 113 l 228 201 q 148 267 174 231 q 122 349 122 303 q 146 430 122 392 q 216 498 170 469 q 180 544 192 518 q 168 603 168 569 q 217 720 168 674 q 342 765 265 765 q 474 721 425 765 q 522 600 522 677 l 522 595 l 433 595 q 407 662 432 637 q 342 686 382 686 q 282 667 304 686 q 260 615 260 648 q 277 569 260 589 q 338 525 294 549 l 467 456 q 546 390 521 427 q 571 304 571 353 q 544 214 571 255 q 473 155 517 172 q 515 105 501 133 q 529 43 529 77 q 475 -76 529 -28 q 340 -123 422 -123 q 210 -76 259 -123 q 160 49 160 -28 l 160 52 m 424 205 q 461 242 448 220 q 475 290 475 265 q 457 340 475 319 q 383 392 440 361 l 271 456 q 229 420 243 439 q 215 378 215 400 q 232 329 215 350 q 309 272 248 308 l 424 205 z "},"•":{"ha":819,"x_min":208,"x_max":610,"o":"m 208 517 q 267 659 208 600 q 410 717 326 717 q 551 658 492 717 q 610 517 610 600 q 550 375 610 434 q 408 315 491 315 q 267 374 325 315 q 208 517 208 433 z "},"¶":{"ha":694,"x_min":57,"x_max":637,"o":"m 637 956 l 551 956 l 551 0 l 496 0 l 496 956 l 370 956 l 370 0 l 313 0 l 313 530 q 126 600 195 536 q 57 766 57 664 q 130 938 57 873 q 323 1003 203 1003 l 637 1003 l 637 956 z "},"ß":{"ha":1375,"x_min":49,"x_max":1313,"o":"m 49 74 l 93 150 q 223 87 153 110 q 358 65 294 65 q 483 97 435 65 q 530 178 530 128 q 487 251 530 227 q 350 278 444 275 q 133 315 192 280 q 74 429 74 349 q 139 549 74 504 q 313 595 203 595 q 457 574 387 595 q 593 511 528 553 l 547 436 q 431 493 493 473 q 311 513 368 513 q 205 490 245 513 q 165 429 165 467 q 206 374 165 391 q 346 358 246 358 q 555 311 484 358 q 625 172 625 264 q 554 36 625 90 q 368 -18 482 -18 q 201 6 284 -18 q 49 74 118 30 m 736 74 l 781 150 q 911 87 840 110 q 1046 65 981 65 q 1171 97 1123 65 q 1218 178 1218 128 q 1175 251 1218 227 q 1038 278 1131 275 q 821 315 880 280 q 762 429 762 349 q 826 549 762 504 q 1000 595 891 595 q 1145 574 1075 595 q 1280 511 1215 553 l 1235 436 q 1118 493 1181 473 q 999 513 1056 513 q 893 490 933 513 q 853 429 853 467 q 893 374 853 391 q 1034 358 934 358 q 1242 311 1172 358 q 1313 172 1313 264 q 1241 36 1313 90 q 1056 -18 1170 -18 q 889 6 972 -18 q 736 74 806 30 z "},"®":{"ha":1157,"x_min":82,"x_max":1075,"o":"m 576 726 l 469 726 l 469 521 l 576 521 q 704 544 667 521 q 741 621 741 566 q 702 702 741 677 q 576 726 663 726 m 593 785 q 771 746 713 785 q 829 627 829 707 q 793 526 829 566 q 694 476 756 485 l 822 212 l 724 212 l 603 464 l 469 464 l 469 212 l 383 212 l 383 785 l 593 785 m 1021 489 q 988 661 1021 580 q 895 803 956 741 q 750 900 831 866 q 578 933 669 933 q 411 901 490 933 q 269 806 332 868 q 171 659 205 740 q 136 490 136 578 q 170 323 136 403 q 267 179 203 243 q 410 82 330 116 q 578 49 490 49 q 748 83 666 49 q 895 180 829 117 q 988 319 956 241 q 1021 489 1021 397 m 578 987 q 771 950 681 987 q 932 842 862 913 q 1038 682 1001 772 q 1075 490 1075 591 q 1039 300 1075 389 q 932 142 1002 211 q 768 32 859 70 q 578 -7 676 -7 q 388 31 478 -7 q 228 140 298 68 q 119 301 157 211 q 82 490 82 391 q 120 680 82 588 q 231 844 159 772 q 388 951 299 914 q 578 987 477 987 z "},"©":{"ha":1157,"x_min":82,"x_max":1075,"o":"m 728 621 q 677 705 715 675 q 581 734 638 734 q 452 670 498 734 q 406 489 406 606 q 452 313 406 376 q 581 249 499 249 q 683 283 641 249 q 736 376 725 317 l 814 376 q 740 237 806 292 q 576 183 674 183 q 387 266 456 183 q 318 493 318 349 q 391 714 318 631 q 583 798 464 798 q 737 749 675 798 q 807 621 799 700 l 728 621 m 1021 490 q 988 661 1021 580 q 893 803 955 741 q 749 900 829 867 q 578 933 668 933 q 409 901 488 933 q 268 806 330 868 q 170 660 204 741 q 136 490 136 578 q 170 323 136 403 q 267 179 203 243 q 410 82 330 116 q 578 49 490 49 q 748 83 666 49 q 895 180 829 117 q 988 320 956 241 q 1021 490 1021 399 m 578 987 q 770 950 679 987 q 932 842 861 912 q 1038 682 1001 772 q 1075 490 1075 591 q 1039 300 1075 389 q 932 142 1002 211 q 768 32 859 70 q 578 -7 676 -7 q 389 31 479 -7 q 228 140 299 68 q 119 301 157 211 q 82 490 82 391 q 120 680 82 589 q 231 844 159 771 q 388 951 299 914 q 578 987 477 987 z "},"™":{"ha":1157,"x_min":179,"x_max":933,"o":"m 636 986 l 749 700 l 854 986 l 933 986 l 933 627 l 885 627 l 885 943 l 765 627 l 732 627 l 606 943 l 606 627 l 557 627 l 557 986 l 636 986 m 471 986 l 471 947 l 354 947 l 354 627 l 298 627 l 298 947 l 179 947 l 179 986 l 471 986 z "},"´":{"ha":694,"x_min":262,"x_max":507,"o":"m 325 669 l 262 669 l 404 907 l 507 907 l 325 669 z "},"¨":{"ha":694,"x_min":178,"x_max":517,"o":"m 396 778 q 413 821 396 803 q 456 839 431 839 q 499 821 481 839 q 517 778 517 803 q 499 734 517 752 q 456 717 481 717 q 413 734 431 717 q 396 778 396 752 m 178 778 q 196 821 178 803 q 239 839 214 839 q 281 821 264 839 q 298 778 298 803 q 281 734 298 752 q 239 717 264 717 q 196 734 214 717 q 178 778 178 752 z "},"≠":{"ha":1157,"x_min":172,"x_max":985,"o":"m 873 753 l 734 574 l 985 574 l 985 509 l 692 509 l 546 321 l 985 321 l 985 254 l 504 254 l 332 35 l 282 75 l 421 254 l 172 254 l 172 321 l 463 321 l 608 509 l 172 509 l 172 574 l 652 574 l 823 793 l 873 753 z "},"Æ":{"ha":1193,"x_min":-35,"x_max":1196,"o":"m 575 0 l 575 201 l 182 201 l 64 0 l -35 0 l 400 749 l 1164 749 l 1164 663 l 668 663 l 668 443 l 970 443 l 970 357 l 668 357 l 668 86 l 1196 86 l 1196 0 l 575 0 m 231 289 l 575 289 l 575 663 l 449 663 l 231 289 z "},"Ø":{"ha":880,"x_min":53,"x_max":829,"o":"m 681 785 l 787 785 l 704 667 q 797 537 764 614 q 829 372 829 461 q 719 91 829 202 q 440 -20 609 -20 q 341 -8 388 -20 q 248 29 294 4 l 200 -39 l 93 -39 l 176 79 q 85 207 117 132 q 53 372 53 283 q 163 654 53 543 q 440 765 273 765 q 539 753 492 765 q 633 717 587 742 l 681 785 m 232 154 l 582 643 q 512 669 546 661 q 440 677 477 677 q 231 591 314 677 q 149 372 149 505 q 169 256 149 309 q 232 154 189 204 m 650 590 l 298 102 q 367 76 333 84 q 440 68 401 68 q 649 154 566 68 q 732 372 732 240 q 712 490 732 437 q 650 590 692 543 z "},"∞":{"ha":1157,"x_min":158,"x_max":1000,"o":"m 608 379 q 691 278 644 311 q 799 244 739 244 q 917 295 871 244 q 962 425 962 346 q 920 552 962 502 q 814 603 878 603 q 709 553 755 603 q 608 379 662 503 m 550 453 q 468 553 515 520 q 359 586 420 586 q 242 535 288 586 q 196 407 196 485 q 239 280 196 331 q 345 229 281 229 q 451 280 404 229 q 550 453 498 331 m 568 489 q 669 629 617 587 q 793 671 722 671 q 939 598 877 671 q 1000 418 1000 525 q 945 232 1000 303 q 802 161 890 161 q 688 202 737 161 q 589 340 638 243 q 488 204 541 246 q 371 161 436 161 q 220 234 281 161 q 158 415 158 306 q 213 600 158 530 q 357 671 269 671 q 473 627 422 671 q 568 489 524 584 z "},"±":{"ha":1157,"x_min":172,"x_max":985,"o":"m 985 102 l 985 35 l 172 35 l 172 102 l 985 102 m 612 793 l 612 557 l 985 557 l 985 490 l 612 490 l 612 254 l 546 254 l 546 490 l 172 490 l 172 557 l 546 557 l 546 793 l 612 793 z "},"≤":{"ha":1157,"x_min":179,"x_max":978,"o":"m 978 94 l 978 28 l 179 28 l 179 94 l 978 94 m 978 729 l 293 500 l 978 272 l 978 200 l 179 472 l 179 529 l 978 802 l 978 729 z "},"≥":{"ha":1157,"x_min":179,"x_max":978,"o":"m 978 94 l 978 28 l 179 28 l 179 94 l 978 94 m 978 529 l 978 472 l 179 200 l 179 272 l 864 500 l 179 729 l 179 802 l 978 529 z "},"¥":{"ha":875,"x_min":64,"x_max":811,"o":"m 618 515 l 796 515 l 796 453 l 564 453 l 490 375 l 796 375 l 796 313 l 482 313 l 482 0 l 392 0 l 392 313 l 79 313 l 79 375 l 382 375 l 313 453 l 79 453 l 79 515 l 256 515 l 64 728 l 178 728 l 437 440 l 696 728 l 811 728 l 618 515 z "},"µ":{"ha":753,"x_min":-75,"x_max":703,"o":"m 233 722 l 149 321 q 140 271 143 294 q 138 227 138 248 q 177 104 138 147 q 290 61 216 61 q 436 134 375 61 q 526 345 497 207 l 608 722 l 703 722 l 591 200 q 580 142 583 163 q 576 110 576 122 q 588 76 576 87 q 623 65 600 65 q 634 65 627 65 q 647 66 640 66 l 633 -8 q 606 -14 621 -12 q 575 -16 591 -16 q 505 9 528 -16 q 482 83 482 33 l 482 93 q 401 12 454 41 q 279 -17 348 -17 q 170 10 217 -17 q 97 89 123 37 l 20 -289 l -75 -289 l 139 722 l 233 722 z "},"∂":{"ha":701,"x_min":85,"x_max":623,"o":"m 510 401 q 522 510 518 458 q 526 611 526 562 q 499 775 526 718 q 421 832 472 832 q 348 786 387 832 q 278 739 309 739 q 242 753 257 739 q 228 785 228 766 q 271 857 228 827 q 376 888 314 888 q 555 786 488 888 q 623 510 623 684 q 530 133 623 283 q 304 -18 438 -18 q 146 54 208 -18 q 85 243 85 127 q 159 449 85 364 q 336 534 233 534 q 445 502 403 534 q 510 401 488 469 m 482 314 q 452 445 482 401 q 361 489 421 489 q 234 405 284 489 q 184 186 184 320 q 215 58 184 100 q 306 16 245 16 q 432 101 382 16 q 482 314 482 186 z "},"∑":{"ha":893,"x_min":9,"x_max":868,"o":"m 33 999 l 863 999 l 863 901 l 175 901 l 653 382 l 151 -170 l 868 -170 l 868 -267 l 9 -267 l 9 -176 l 514 380 l 33 904 l 33 999 z "},"∏":{"ha":1023,"x_min":109,"x_max":914,"o":"m 109 999 l 914 999 l 914 -267 l 800 -267 l 800 899 l 222 899 l 222 -267 l 109 -267 l 109 999 z "},"π":{"ha":794,"x_min":-3,"x_max":778,"o":"m 760 640 l 636 640 l 558 273 q 543 194 548 227 q 538 146 538 161 q 555 90 538 106 q 612 74 572 74 q 647 76 632 74 q 675 80 662 77 l 657 0 q 621 -8 638 -5 q 589 -11 604 -11 q 482 25 520 -11 q 444 126 444 61 q 452 206 444 157 q 482 364 459 255 l 541 640 l 293 640 l 158 0 l 64 0 l 199 640 l 172 640 q 114 619 135 640 q 86 551 94 597 l -3 551 q 57 685 14 648 q 203 722 100 722 l 778 722 l 760 640 z "},"∫":{"ha":668,"x_min":31,"x_max":636,"o":"m 199 -184 q 278 299 269 -184 q 281 432 279 385 q 347 906 288 762 q 529 1050 406 1050 q 606 1025 576 1050 q 636 960 636 1000 q 617 908 636 927 q 564 889 597 889 q 494 936 511 889 q 471 983 477 983 q 392 561 399 983 q 387 365 389 435 q 319 -112 377 28 q 138 -252 260 -252 q 61 -227 91 -252 q 31 -165 31 -203 q 52 -111 31 -131 q 107 -90 73 -90 q 149 -101 132 -90 q 176 -136 166 -113 q 181 -159 179 -142 q 199 -184 184 -184 z "},"ª":{"ha":411,"x_min":-8,"x_max":419,"o":"m 131 418 l 279 418 l 205 551 l 131 418 m -8 283 l 186 631 l 224 631 l 419 283 l 355 283 l 306 372 l 104 372 l 56 283 l -8 283 z "},"º":{"ha":532,"x_min":32,"x_max":500,"o":"m 265 323 q 391 361 342 323 q 439 457 439 399 q 390 552 439 515 q 265 590 342 590 q 141 552 189 590 q 93 457 93 515 q 141 361 93 399 q 265 323 189 323 m 265 272 q 98 325 163 272 q 32 457 32 377 q 97 588 32 536 q 265 640 163 640 q 434 589 369 640 q 500 457 500 537 q 434 324 500 376 q 265 272 369 272 z "},"Ω":{"ha":1071,"x_min":79,"x_max":991,"o":"m 991 94 l 991 0 l 597 0 l 597 86 q 810 285 738 170 q 882 539 882 400 q 786 824 882 715 q 536 933 690 933 q 286 825 382 933 q 189 541 189 716 q 261 284 189 400 q 473 86 334 169 l 473 0 l 79 0 l 79 94 l 313 94 q 139 292 195 184 q 82 532 82 399 q 210 887 82 749 q 536 1026 338 1026 q 862 888 734 1026 q 990 533 990 750 q 933 293 990 400 q 758 94 877 186 l 991 94 z "},"æ":{"ha":1125,"x_min":-11,"x_max":1095,"o":"m 218 224 l 526 224 l 526 494 l 374 494 l 218 224 m 171 147 l 86 0 l -11 0 l 322 579 l 1072 579 l 1072 494 l 616 494 l 616 350 l 913 350 l 913 267 l 616 267 l 616 83 l 1095 83 l 1095 0 l 526 0 l 526 147 l 171 147 z "},"ø":{"ha":742,"x_min":43,"x_max":699,"o":"m 43 -26 l 136 81 q 79 177 98 125 q 60 289 60 228 q 148 508 60 421 q 371 595 237 595 q 462 583 420 595 q 545 547 504 572 l 591 604 l 699 604 l 606 496 q 663 400 644 451 q 682 289 682 349 q 594 69 682 157 q 371 -18 505 -18 q 280 -7 321 -18 q 197 29 238 5 l 150 -26 l 43 -26 m 195 147 l 490 485 q 435 509 464 501 q 371 517 407 517 q 213 452 275 517 q 150 289 150 387 q 161 214 150 250 q 195 147 172 178 m 547 432 l 253 93 q 308 70 279 77 q 371 62 336 62 q 530 126 467 62 q 593 289 593 191 q 582 366 593 331 q 547 432 570 401 z "},"¿":{"ha":501,"x_min":36,"x_max":464,"o":"m 328 564 l 328 443 q 317 384 328 410 q 271 323 307 359 l 155 208 q 136 181 142 195 q 131 149 131 168 q 161 89 131 112 q 239 65 191 65 q 330 92 294 65 q 378 170 366 119 l 464 138 q 387 20 443 59 q 239 -20 330 -20 q 91 28 145 -20 q 36 157 36 76 q 49 216 36 189 q 89 269 62 243 l 207 385 q 228 419 221 399 q 235 467 235 439 l 235 564 l 328 564 m 279 642 q 239 660 255 642 q 222 704 222 677 q 239 748 222 731 q 279 765 255 765 q 320 748 303 765 q 336 704 336 731 q 320 660 336 677 q 279 642 303 642 z "},"¡":{"ha":463,"x_min":175,"x_max":288,"o":"m 272 551 l 283 0 l 180 0 l 192 551 l 272 551 m 232 642 q 192 660 208 642 q 175 704 175 677 q 191 748 175 731 q 232 765 208 765 q 272 748 256 765 q 288 704 288 731 q 272 659 288 677 q 232 642 256 642 z "},"¬":{"ha":1157,"x_min":172,"x_max":985,"o":"m 985 582 l 985 241 l 920 241 l 920 514 l 172 514 l 172 582 l 985 582 z "},"√":{"ha":865,"x_min":37,"x_max":865,"o":"m 865 1109 l 865 1061 l 781 1061 l 378 -28 l 350 -28 l 127 582 l 50 555 l 37 595 l 204 653 l 389 147 l 745 1109 l 865 1109 z "},"ƒ":{"ha":926,"x_min":46,"x_max":856,"o":"m 439 52 q 353 -123 412 -69 q 189 -178 293 -178 q 129 -172 163 -178 q 46 -153 95 -166 l 77 -71 q 135 -85 109 -81 q 182 -90 161 -90 q 289 -55 250 -90 q 345 57 328 -20 l 416 392 l 250 392 l 268 479 l 435 479 l 463 611 q 548 785 488 730 q 713 840 608 840 q 772 834 739 840 q 856 815 806 829 l 825 733 q 766 748 793 743 q 720 753 740 753 q 611 717 651 753 q 555 606 571 681 l 530 479 l 720 479 l 701 392 l 513 392 l 439 52 z "},"≈":{"ha":1157,"x_min":121,"x_max":1038,"o":"m 1038 318 q 901 244 966 268 q 775 220 837 220 q 578 267 707 220 q 383 314 449 314 q 267 289 328 314 q 121 205 207 264 l 121 281 q 258 355 193 331 q 383 379 322 379 q 586 333 457 379 q 775 286 714 286 q 894 310 833 286 q 1038 393 954 334 l 1038 318 m 1038 547 q 903 473 967 497 q 775 449 838 449 q 577 496 705 449 q 383 543 449 543 q 267 518 328 543 q 121 435 207 494 l 121 511 q 257 585 192 561 q 383 610 322 610 q 586 563 457 610 q 775 515 714 515 q 891 539 832 515 q 1038 623 950 562 l 1038 547 z "},"∆":{"ha":913,"x_min":-7,"x_max":920,"o":"m 772 94 l 456 899 l 140 94 l 772 94 m 519 999 l 920 0 l -7 0 l 393 999 l 519 999 z "},"«":{"ha":562,"x_min":32,"x_max":529,"o":"m 252 57 l 32 221 l 32 355 l 252 521 l 252 422 l 79 289 l 252 153 l 252 57 m 529 57 l 310 221 l 310 355 l 529 521 l 529 422 l 357 289 l 529 153 l 529 57 z "},"»":{"ha":562,"x_min":33,"x_max":530,"o":"m 313 57 l 313 153 l 484 289 l 313 422 l 313 521 l 530 355 l 530 221 l 313 57 m 33 57 l 33 153 l 205 289 l 33 422 l 33 521 l 253 355 l 253 221 l 33 57 z "},"…":{"ha":1389,"x_min":175,"x_max":1214,"o":"m 232 104 q 272 87 256 104 q 288 41 288 69 q 272 -2 288 15 q 232 -20 256 -20 q 191 -2 208 -20 q 175 41 175 15 q 192 86 175 68 q 232 104 208 104 m 694 104 q 734 87 718 104 q 750 41 750 69 q 734 -2 750 15 q 694 -20 718 -20 q 654 -2 670 -20 q 637 41 637 15 q 654 86 637 68 q 694 104 671 104 m 1158 104 q 1198 87 1182 104 q 1214 41 1214 69 q 1198 -2 1214 15 q 1158 -20 1182 -20 q 1118 -2 1134 -20 q 1101 41 1101 15 q 1118 86 1101 68 q 1158 104 1135 104 z "}," ":{"ha":926,"x_min":0,"x_max":0,"o":""},"À":{"ha":817,"x_min":0,"x_max":815,"o":"m 241 289 l 571 289 l 406 621 l 241 289 m 0 0 l 367 749 l 444 749 l 815 0 l 714 0 l 612 201 l 199 201 l 100 0 l 0 0 m 431 840 l 248 1078 l 351 1078 l 493 840 l 431 840 z "},"Ã":{"ha":817,"x_min":0,"x_max":815,"o":"m 241 289 l 571 289 l 406 621 l 241 289 m 0 0 l 367 749 l 444 749 l 815 0 l 714 0 l 612 201 l 199 201 l 100 0 l 0 0 m 604 1019 q 554 927 587 958 q 475 896 522 896 q 455 898 466 896 q 431 903 444 899 l 365 924 q 346 928 354 927 q 329 929 338 929 q 293 917 309 929 q 267 881 277 904 l 212 881 q 261 972 227 941 q 345 1004 295 1004 q 364 1003 355 1004 q 380 999 373 1002 l 446 978 q 467 972 456 974 q 484 970 477 970 q 521 982 505 970 q 549 1019 536 994 l 604 1019 z "},"Õ":{"ha":880,"x_min":53,"x_max":829,"o":"m 440 68 q 649 154 566 68 q 732 372 732 240 q 649 591 732 505 q 440 677 567 677 q 231 591 314 677 q 149 372 149 505 q 231 154 149 240 q 440 68 314 68 m 440 -20 q 162 91 272 -20 q 53 372 53 202 q 163 654 53 543 q 440 765 273 765 q 719 654 608 765 q 829 372 829 543 q 719 91 829 202 q 440 -20 609 -20 m 636 1019 q 586 927 618 958 q 507 896 553 896 q 487 898 498 896 q 463 903 475 899 l 397 924 q 378 928 386 927 q 361 929 370 929 q 325 917 341 929 q 298 881 309 904 l 244 881 q 293 972 259 941 q 376 1004 327 1004 q 396 1003 387 1004 q 412 999 405 1002 l 477 978 q 498 972 488 974 q 515 970 509 970 q 553 982 537 970 q 581 1019 568 994 l 636 1019 z "},"Œ":{"ha":1369,"x_min":53,"x_max":1346,"o":"m 725 0 l 725 113 q 602 13 672 46 q 440 -20 531 -20 q 162 91 272 -20 q 53 372 53 202 q 163 654 53 543 q 440 765 273 765 q 601 733 532 765 q 725 632 669 701 l 725 749 l 1315 749 l 1315 663 l 819 663 l 819 443 l 1120 443 l 1120 357 l 819 357 l 819 86 l 1346 86 l 1346 0 l 725 0 m 440 68 q 649 154 566 68 q 732 372 732 240 q 649 591 732 505 q 440 677 567 677 q 231 591 314 677 q 149 372 149 505 q 231 154 149 240 q 440 68 314 68 z "},"œ":{"ha":1260,"x_min":49,"x_max":1229,"o":"m 661 579 l 1206 579 l 1206 494 l 751 494 l 751 350 l 1048 350 l 1048 267 l 751 267 l 751 83 l 1229 83 l 1229 0 l 661 0 l 661 75 q 546 4 608 27 q 403 -18 484 -18 q 149 69 248 -18 q 49 289 49 157 q 150 509 49 424 q 412 595 250 595 q 550 573 492 595 q 661 503 609 551 l 661 579 m 403 66 q 592 129 519 66 q 665 289 665 192 q 592 448 665 385 q 403 511 518 511 q 215 449 288 511 q 142 289 142 386 q 215 129 142 192 q 403 66 288 66 z "},"–":{"ha":694,"x_min":0,"x_max":694,"o":"m 0 401 l 694 401 l 694 345 l 0 345 l 0 401 z "},"—":{"ha":1389,"x_min":0,"x_max":1389,"o":"m 1389 401 l 1389 345 l 0 345 l 0 401 l 1389 401 z "},"“":{"ha":688,"x_min":168,"x_max":521,"o":"m 296 742 q 259 681 275 711 q 235 623 244 651 l 240 623 q 275 605 261 623 q 289 561 289 587 q 273 514 289 532 q 232 496 257 496 q 186 520 203 496 q 168 586 168 545 q 194 670 168 625 q 269 765 220 715 l 296 742 m 521 742 q 485 681 500 711 q 460 623 469 651 l 465 623 q 500 605 486 623 q 514 561 514 587 q 498 514 514 532 q 457 496 482 496 q 411 520 429 496 q 393 586 393 545 q 419 670 393 625 q 494 765 444 715 l 521 742 z "},"”":{"ha":688,"x_min":168,"x_max":521,"o":"m 393 519 q 428 578 413 549 q 453 639 443 608 l 446 639 q 412 655 425 639 q 399 699 399 672 q 415 746 399 728 q 457 765 432 765 q 503 740 486 765 q 521 673 521 715 q 495 592 521 636 q 418 496 469 547 l 393 519 m 168 519 q 203 578 188 549 q 228 639 218 608 l 221 639 q 187 655 200 639 q 174 699 174 672 q 190 746 174 728 q 232 765 207 765 q 278 740 260 765 q 296 673 296 715 q 270 592 296 636 q 193 496 244 547 l 168 519 z "},"‘":{"ha":463,"x_min":168,"x_max":296,"o":"m 296 742 q 259 681 275 711 q 235 623 244 651 l 240 623 q 275 605 261 623 q 289 561 289 587 q 273 514 289 532 q 232 496 257 496 q 186 520 203 496 q 168 586 168 545 q 194 670 168 625 q 269 765 220 715 l 296 742 z "},"’":{"ha":463,"x_min":168,"x_max":296,"o":"m 168 519 q 203 578 188 549 q 228 639 218 608 l 221 639 q 187 655 200 639 q 174 699 174 672 q 190 746 174 728 q 232 765 207 765 q 278 740 260 765 q 296 673 296 715 q 270 592 296 636 q 193 496 244 547 l 168 519 z "},"÷":{"ha":1157,"x_min":172,"x_max":985,"o":"m 579 248 q 631 227 610 248 q 652 175 652 205 q 631 124 652 145 q 579 103 610 103 q 528 124 549 103 q 507 175 507 145 q 528 226 507 205 q 579 248 549 248 m 985 447 l 985 380 l 172 380 l 172 447 l 985 447 m 579 726 q 630 705 609 726 q 652 653 652 683 q 631 602 652 623 q 579 581 610 581 q 528 601 549 581 q 507 653 507 622 q 529 705 507 683 q 579 726 550 726 z "},"◊":{"ha":686,"x_min":4,"x_max":682,"o":"m 343 956 l 82 401 l 343 -158 l 604 401 l 343 956 m 343 1121 l 682 401 l 343 -323 l 4 401 l 343 1121 z "},"ÿ":{"ha":621,"x_min":1,"x_max":619,"o":"m 265 0 l 265 296 l 1 579 l 118 579 l 310 374 l 498 579 l 619 579 l 354 297 l 354 0 l 265 0 m 360 778 q 377 821 360 803 q 420 839 395 839 q 463 821 445 839 q 481 778 481 803 q 463 734 481 752 q 420 717 445 717 q 377 734 395 717 q 360 778 360 752 m 142 778 q 160 821 142 803 q 203 839 178 839 q 245 821 228 839 q 262 778 262 803 q 245 734 262 752 q 203 717 228 717 q 160 734 178 717 q 142 778 142 752 z "},"Ÿ":{"ha":631,"x_min":-69,"x_max":700,"o":"m 268 0 l 268 375 l -69 749 l 47 749 l 315 453 l 582 749 l 700 749 l 361 374 l 361 0 l 268 0 m 364 949 q 381 992 364 974 q 424 1010 399 1010 q 467 992 449 1010 q 485 949 485 974 q 467 905 485 923 q 424 888 449 888 q 381 905 399 888 q 364 949 364 923 m 146 949 q 164 992 146 974 q 207 1010 182 1010 q 249 992 232 1010 q 267 949 267 974 q 249 905 267 923 q 207 888 232 888 q 164 905 182 888 q 146 949 146 923 z "},"∕":{"ha":232,"x_min":-232,"x_max":463,"o":"m 370 728 l 463 728 l -138 -20 l -232 -20 l 370 728 z "},"¤":{"ha":842,"x_min":61,"x_max":782,"o":"m 640 602 q 576 755 640 692 q 422 819 513 819 q 267 755 332 819 q 201 602 201 691 q 267 446 201 511 q 422 380 332 380 q 576 446 513 380 q 640 602 640 511 m 244 821 q 329 867 285 852 q 421 882 372 882 q 515 866 470 882 q 599 821 560 851 l 737 960 l 782 916 l 643 777 q 688 692 673 736 q 703 600 703 647 q 688 509 703 553 q 643 425 673 465 l 782 285 l 737 240 l 599 379 q 514 333 559 349 q 421 318 469 318 q 330 333 373 318 q 244 379 286 348 l 106 240 l 61 285 l 200 425 q 154 510 170 467 q 139 600 139 554 q 154 691 139 646 q 200 777 170 735 l 61 916 l 106 960 l 244 821 z "},"‹":{"ha":283,"x_min":32,"x_max":252,"o":"m 252 57 l 32 221 l 32 355 l 252 521 l 252 422 l 79 289 l 252 153 l 252 57 z "},"›":{"ha":283,"x_min":32,"x_max":252,"o":"m 32 57 l 32 153 l 204 289 l 32 422 l 32 521 l 252 355 l 252 221 l 32 57 z "},"":{"ha":946,"x_min":98,"x_max":845,"o":"m 189 267 l 189 0 l 98 0 l 98 579 l 633 579 l 633 494 l 189 494 l 189 350 l 476 350 l 476 267 l 189 267 m 753 0 l 753 581 l 845 581 l 845 0 l 753 0 z "},"":{"ha":1276,"x_min":98,"x_max":1272,"o":"m 189 267 l 189 0 l 98 0 l 98 579 l 633 579 l 633 494 l 189 494 l 189 350 l 476 350 l 476 267 l 189 267 m 751 0 l 751 579 l 842 579 l 842 83 l 1272 83 l 1272 0 l 751 0 z "},"‡":{"ha":694,"x_min":113,"x_max":582,"o":"m 302 458 l 113 458 l 113 539 l 302 539 l 302 749 l 392 749 l 392 539 l 582 539 l 582 458 l 392 458 l 392 186 l 582 186 l 582 106 l 392 106 l 392 -104 l 302 -104 l 302 106 l 113 106 l 113 186 l 302 186 l 302 458 z "},"·":{"ha":463,"x_min":174,"x_max":290,"o":"m 174 363 q 190 404 174 387 q 231 421 206 421 q 273 404 255 421 q 290 363 290 387 q 273 321 290 338 q 231 304 256 304 q 190 321 207 304 q 174 363 174 338 z "},"‚":{"ha":463,"x_min":168,"x_max":296,"o":"m 168 -118 q 203 -59 189 -88 q 228 0 218 -30 l 222 0 q 188 17 201 0 q 174 61 174 35 q 190 109 174 90 q 232 127 207 127 q 278 103 260 127 q 296 36 296 78 q 270 -46 296 -1 q 193 -142 244 -90 l 168 -118 z "},"„":{"ha":688,"x_min":168,"x_max":521,"o":"m 393 -119 q 428 -61 413 -91 q 453 0 443 -31 l 446 0 q 412 17 425 0 q 399 60 399 33 q 415 107 399 89 q 457 126 432 126 q 503 101 486 126 q 521 35 521 77 q 495 -47 521 -3 q 418 -143 469 -92 l 393 -119 m 168 -119 q 203 -61 188 -91 q 228 0 218 -31 l 221 0 q 187 17 200 0 q 174 60 174 33 q 190 107 174 89 q 232 126 207 126 q 278 101 260 126 q 296 35 296 77 q 270 -47 296 -3 q 193 -143 244 -92 l 168 -119 z "},"‰":{"ha":1675,"x_min":35,"x_max":1640,"o":"m 1425 61 q 1515 100 1479 61 q 1552 196 1552 138 q 1515 293 1552 254 q 1425 332 1479 332 q 1336 293 1371 332 q 1300 196 1300 254 q 1336 99 1300 138 q 1425 61 1371 61 m 1428 -20 q 1275 42 1336 -20 q 1214 196 1214 103 q 1275 350 1214 289 q 1428 411 1335 411 q 1580 350 1520 411 q 1640 196 1640 290 q 1580 41 1640 102 q 1428 -20 1520 -20 m 921 61 q 1011 100 975 61 q 1047 196 1047 138 q 1011 293 1047 254 q 921 332 975 332 q 832 293 867 332 q 796 196 796 254 q 832 99 796 138 q 921 61 867 61 m 921 -20 q 769 42 829 -20 q 708 196 708 103 q 768 350 708 289 q 921 411 829 411 q 1074 350 1014 411 q 1135 196 1135 290 q 1074 41 1135 102 q 921 -20 1013 -20 m 726 713 l 823 713 l 443 0 l 346 0 l 726 713 m 249 378 q 339 417 302 378 q 375 514 375 456 q 339 610 375 572 q 249 648 303 648 q 159 610 195 648 q 123 514 123 572 q 159 417 123 456 q 249 378 195 378 m 249 297 q 96 358 157 297 q 35 513 35 420 q 96 667 35 606 q 249 729 157 729 q 401 668 341 729 q 461 513 461 607 q 401 358 461 419 q 249 297 340 297 z "},"Â":{"ha":817,"x_min":0,"x_max":815,"o":"m 241 289 l 571 289 l 406 621 l 241 289 m 0 0 l 367 749 l 444 749 l 815 0 l 714 0 l 612 201 l 199 201 l 100 0 l 0 0 m 221 840 l 357 1078 l 460 1078 l 595 840 l 533 840 l 408 1019 l 283 840 l 221 840 z "},"Ê":{"ha":758,"x_min":113,"x_max":732,"o":"m 113 0 l 113 749 l 701 749 l 701 663 l 205 663 l 205 443 l 505 443 l 505 357 l 205 357 l 205 86 l 732 86 l 732 0 l 113 0 m 231 840 l 366 1078 l 469 1078 l 605 840 l 543 840 l 418 1019 l 293 840 l 231 840 z "},"Á":{"ha":817,"x_min":0,"x_max":815,"o":"m 241 289 l 571 289 l 406 621 l 241 289 m 0 0 l 367 749 l 444 749 l 815 0 l 714 0 l 612 201 l 199 201 l 100 0 l 0 0 m 386 840 l 323 840 l 465 1078 l 568 1078 l 386 840 z "},"Ë":{"ha":758,"x_min":113,"x_max":732,"o":"m 113 0 l 113 749 l 701 749 l 701 663 l 205 663 l 205 443 l 505 443 l 505 357 l 205 357 l 205 86 l 732 86 l 732 0 l 113 0 m 467 949 q 484 992 467 974 q 526 1010 501 1010 q 569 992 551 1010 q 587 949 587 974 q 569 905 587 923 q 526 888 551 888 q 484 905 501 888 q 467 949 467 923 m 248 949 q 266 992 248 974 q 309 1010 284 1010 q 352 992 334 1010 q 369 949 369 974 q 352 905 369 923 q 309 888 334 888 q 266 905 284 888 q 248 949 248 923 z "},"È":{"ha":758,"x_min":113,"x_max":732,"o":"m 113 0 l 113 749 l 701 749 l 701 663 l 205 663 l 205 443 l 505 443 l 505 357 l 205 357 l 205 86 l 732 86 l 732 0 l 113 0 m 440 840 l 258 1078 l 361 1078 l 503 840 l 440 840 z "},"Í":{"ha":321,"x_min":77,"x_max":321,"o":"m 114 0 l 114 753 l 208 753 l 208 0 l 114 0 m 139 840 l 77 840 l 218 1078 l 321 1078 l 139 840 z "},"Î":{"ha":321,"x_min":-26,"x_max":349,"o":"m 114 0 l 114 753 l 208 753 l 208 0 l 114 0 m -26 840 l 110 1078 l 213 1078 l 349 840 l 286 840 l 161 1019 l 37 840 l -26 840 z "},"Ï":{"ha":321,"x_min":-8,"x_max":331,"o":"m 114 0 l 114 753 l 208 753 l 208 0 l 114 0 m 210 949 q 228 992 210 974 q 270 1010 245 1010 q 313 992 295 1010 q 331 949 331 974 q 313 905 331 923 q 270 888 295 888 q 228 905 245 888 q 210 949 210 923 m -8 949 q 10 992 -8 974 q 53 1010 28 1010 q 95 992 78 1010 q 113 949 113 974 q 95 905 113 923 q 53 888 78 888 q 10 905 28 888 q -8 949 -8 923 z "},"Ì":{"ha":321,"x_min":1,"x_max":246,"o":"m 114 0 l 114 753 l 208 753 l 208 0 l 114 0 m 184 840 l 1 1078 l 104 1078 l 246 840 l 184 840 z "},"Ó":{"ha":880,"x_min":53,"x_max":829,"o":"m 440 68 q 649 154 566 68 q 732 372 732 240 q 649 591 732 505 q 440 677 567 677 q 231 591 314 677 q 149 372 149 505 q 231 154 149 240 q 440 68 314 68 m 440 -20 q 162 91 272 -20 q 53 372 53 202 q 163 654 53 543 q 440 765 273 765 q 719 654 608 765 q 829 372 829 543 q 719 91 829 202 q 440 -20 609 -20 m 418 840 l 355 840 l 497 1078 l 600 1078 l 418 840 z "},"Ô":{"ha":880,"x_min":53,"x_max":829,"o":"m 440 68 q 649 154 566 68 q 732 372 732 240 q 649 591 732 505 q 440 677 567 677 q 231 591 314 677 q 149 372 149 505 q 231 154 149 240 q 440 68 314 68 m 440 -20 q 162 91 272 -20 q 53 372 53 202 q 163 654 53 543 q 440 765 273 765 q 719 654 608 765 q 829 372 829 543 q 719 91 829 202 q 440 -20 609 -20 m 253 840 l 389 1078 l 492 1078 l 627 840 l 565 840 l 440 1019 l 315 840 l 253 840 z "},"":{"ha":1097,"x_min":77,"x_max":1021,"o":"m 567 825 q 566 834 566 829 q 566 850 566 840 q 630 1005 566 934 q 790 1095 694 1077 q 791 1079 791 1088 q 791 1053 791 1070 q 721 893 791 964 q 583 823 651 823 l 578 823 q 573 824 576 823 q 567 825 570 825 m 1021 273 q 882 41 943 106 q 743 -24 820 -24 q 654 -1 709 -24 q 571 21 599 21 q 482 -1 541 21 q 396 -24 424 -24 q 309 6 353 -24 q 221 96 265 36 q 114 296 152 191 q 77 500 77 401 q 161 742 77 648 q 380 835 246 835 q 486 812 427 835 q 570 789 545 789 q 652 812 593 789 q 755 835 711 835 q 890 808 831 835 q 999 725 950 781 q 896 626 930 681 q 863 503 863 572 q 903 367 863 426 q 1021 273 944 308 z "},"Ò":{"ha":880,"x_min":53,"x_max":829,"o":"m 440 68 q 649 154 566 68 q 732 372 732 240 q 649 591 732 505 q 440 677 567 677 q 231 591 314 677 q 149 372 149 505 q 231 154 149 240 q 440 68 314 68 m 440 -20 q 162 91 272 -20 q 53 372 53 202 q 163 654 53 543 q 440 765 273 765 q 719 654 608 765 q 829 372 829 543 q 719 91 829 202 q 440 -20 609 -20 m 463 840 l 280 1078 l 383 1078 l 525 840 l 463 840 z "},"Ú":{"ha":804,"x_min":93,"x_max":710,"o":"m 186 749 l 186 264 q 230 107 186 147 q 401 68 273 68 q 573 107 530 68 q 616 264 616 147 l 616 749 l 710 749 l 710 239 q 638 40 710 100 q 401 -20 566 -20 q 165 40 237 -20 q 93 239 93 100 l 93 749 l 186 749 m 380 840 l 318 840 l 460 1078 l 563 1078 l 380 840 z "},"Û":{"ha":804,"x_min":93,"x_max":710,"o":"m 186 749 l 186 264 q 230 107 186 147 q 401 68 273 68 q 573 107 530 68 q 616 264 616 147 l 616 749 l 710 749 l 710 239 q 638 40 710 100 q 401 -20 566 -20 q 165 40 237 -20 q 93 239 93 100 l 93 749 l 186 749 m 216 840 l 351 1078 l 454 1078 l 590 840 l 528 840 l 403 1019 l 278 840 l 216 840 z "},"Ù":{"ha":804,"x_min":93,"x_max":710,"o":"m 186 749 l 186 264 q 230 107 186 147 q 401 68 273 68 q 573 107 530 68 q 616 264 616 147 l 616 749 l 710 749 l 710 239 q 638 40 710 100 q 401 -20 566 -20 q 165 40 237 -20 q 93 239 93 100 l 93 749 l 186 749 m 425 840 l 243 1078 l 346 1078 l 488 840 l 425 840 z "},"ı":{"ha":293,"x_min":100,"x_max":192,"o":"m 100 0 l 100 581 l 192 581 l 192 0 l 100 0 z "},"ˆ":{"ha":694,"x_min":160,"x_max":534,"o":"m 160 669 l 296 907 l 399 907 l 534 669 l 472 669 l 347 848 l 222 669 l 160 669 z "},"˜":{"ha":694,"x_min":151,"x_max":543,"o":"m 543 848 q 493 756 526 787 q 414 725 460 725 q 394 727 405 725 q 370 732 382 728 l 304 753 q 285 757 293 756 q 268 758 277 758 q 232 746 248 758 q 205 710 216 733 l 151 710 q 200 802 166 770 q 283 833 234 833 q 303 832 294 833 q 319 828 312 831 l 385 807 q 406 801 395 803 q 422 799 416 799 q 460 811 444 799 q 488 848 475 823 l 543 848 z "},"¯":{"ha":694,"x_min":174,"x_max":521,"o":"m 174 737 l 174 817 l 521 817 l 521 737 l 174 737 z "},"˘":{"ha":694,"x_min":161,"x_max":533,"o":"m 161 876 l 215 876 q 251 802 219 825 q 347 778 283 778 q 443 801 412 778 q 478 876 473 825 l 533 876 q 483 741 527 784 q 347 699 438 699 q 212 741 257 699 q 161 876 168 784 z "},"˙":{"ha":694,"x_min":279,"x_max":414,"o":"m 279 778 q 299 826 279 806 q 347 846 319 846 q 394 826 375 846 q 414 778 414 806 q 394 730 414 749 q 347 711 375 711 q 299 731 319 711 q 279 778 279 751 z "},"˚":{"ha":694,"x_min":184,"x_max":511,"o":"m 245 819 q 275 747 245 777 q 347 718 304 718 q 420 748 389 718 q 450 819 450 777 q 420 892 450 862 q 347 922 389 922 q 275 892 304 922 q 245 819 245 863 m 184 821 q 232 936 184 889 q 347 983 279 983 q 463 936 415 983 q 511 821 511 888 q 463 705 511 753 q 347 657 415 657 q 232 705 279 657 q 184 821 184 753 z "},"¸":{"ha":694,"x_min":184,"x_max":509,"o":"m 184 -283 l 184 -232 q 283 -251 249 -245 q 345 -256 318 -256 q 411 -240 388 -256 q 433 -195 433 -224 q 410 -140 433 -157 q 336 -123 387 -123 q 317 -124 323 -123 q 304 -125 311 -124 l 304 0 l 347 0 l 347 -75 l 361 -75 q 471 -105 433 -75 q 509 -192 509 -135 q 469 -280 509 -250 q 355 -311 430 -311 q 280 -305 319 -311 q 184 -283 241 -299 z "},"˝":{"ha":694,"x_min":228,"x_max":591,"o":"m 387 669 l 501 907 l 591 907 l 437 669 l 387 669 m 228 669 l 329 907 l 419 907 l 278 669 l 228 669 z "},"˛":{"ha":694,"x_min":227,"x_max":418,"o":"m 392 0 q 318 -83 342 -43 q 293 -160 293 -123 q 310 -205 293 -191 q 367 -218 326 -218 l 418 -218 l 418 -289 l 370 -289 q 261 -262 296 -289 q 227 -179 227 -235 q 258 -92 227 -138 q 350 0 289 -47 l 392 0 z "},"ˇ":{"ha":694,"x_min":160,"x_max":534,"o":"m 160 907 l 222 907 l 347 729 l 472 907 l 534 907 l 399 669 l 296 669 l 160 907 z "},"Ł":{"ha":790,"x_min":0,"x_max":790,"o":"m 208 0 l 208 340 l 0 222 l 0 311 l 208 429 l 208 749 l 301 749 l 301 471 l 546 612 l 546 524 l 301 382 l 301 86 l 790 86 l 790 0 l 208 0 z "},"ł":{"ha":650,"x_min":0,"x_max":644,"o":"m 122 0 l 122 232 l 0 163 l 0 248 l 122 317 l 122 579 l 212 579 l 212 368 l 401 478 l 401 392 l 212 282 l 212 83 l 644 83 l 644 0 l 122 0 z "},"Š":{"ha":829,"x_min":41,"x_max":762,"o":"m 41 113 l 96 193 q 261 99 175 132 q 431 66 347 66 q 599 111 534 66 q 664 224 664 155 q 617 314 664 279 q 489 357 571 350 q 432 361 469 359 q 180 404 248 374 q 101 469 128 429 q 74 558 74 509 q 155 707 74 648 q 364 765 235 765 q 549 734 458 765 q 722 643 640 703 l 668 566 q 523 649 599 621 q 366 677 446 677 q 226 645 281 677 q 171 562 171 612 q 180 526 171 543 q 207 496 189 510 q 406 452 253 461 q 515 443 477 448 q 696 370 629 430 q 762 221 762 309 q 671 48 762 116 q 432 -20 580 -20 q 224 13 320 -20 q 41 113 128 45 m 228 1078 l 290 1078 l 415 900 l 540 1078 l 602 1078 l 467 840 l 363 840 l 228 1078 z "},"š":{"ha":688,"x_min":49,"x_max":625,"o":"m 49 74 l 93 150 q 223 87 153 110 q 358 65 294 65 q 483 97 435 65 q 530 178 530 128 q 487 251 530 227 q 350 278 444 275 q 133 315 192 280 q 74 429 74 349 q 139 549 74 504 q 313 595 203 595 q 457 574 387 595 q 593 511 528 553 l 547 436 q 431 493 493 473 q 311 513 368 513 q 205 490 245 513 q 165 429 165 467 q 206 374 165 391 q 346 358 246 358 q 555 311 484 358 q 625 172 625 264 q 554 36 625 90 q 368 -18 482 -18 q 201 6 284 -18 q 49 74 118 30 m 157 907 l 220 907 l 345 729 l 469 907 l 532 907 l 396 669 l 293 669 l 157 907 z "},"Ž":{"ha":707,"x_min":-3,"x_max":672,"o":"m -3 0 l 503 663 l 40 663 l 40 749 l 672 749 l 178 86 l 669 86 l 669 0 l -3 0 m 167 1078 l 229 1078 l 354 900 l 479 1078 l 541 1078 l 406 840 l 302 840 l 167 1078 z "},"ž":{"ha":607,"x_min":24,"x_max":566,"o":"m 24 0 l 399 494 l 57 494 l 57 579 l 566 579 l 187 83 l 562 83 l 562 0 l 24 0 m 117 907 l 180 907 l 304 729 l 429 907 l 492 907 l 356 669 l 253 669 l 117 907 z "},"¦":{"ha":694,"x_min":311,"x_max":385,"o":"m 385 277 l 385 -237 l 311 -237 l 311 277 l 385 277 m 385 971 l 385 457 l 311 457 l 311 971 l 385 971 z "},"Ð":{"ha":929,"x_min":1,"x_max":876,"o":"m 484 663 l 256 663 l 256 449 l 518 449 l 518 371 l 256 371 l 256 86 l 484 86 q 701 164 622 86 q 781 374 781 241 q 700 583 781 504 q 484 663 618 663 m 484 749 q 768 644 660 749 q 876 372 876 540 q 770 102 876 203 q 484 0 663 0 l 163 0 l 163 371 l 1 371 l 1 449 l 163 449 l 163 749 l 484 749 z "},"ð":{"ha":739,"x_min":0,"x_max":696,"o":"m 380 579 q 609 498 522 579 q 696 288 696 417 q 611 78 696 157 q 380 0 526 0 l 122 0 l 122 273 l 0 273 l 0 350 l 122 350 l 122 579 l 380 579 m 382 496 l 212 496 l 212 350 l 390 350 l 390 273 l 212 273 l 212 83 l 382 83 q 544 139 485 83 q 603 289 603 194 q 542 438 603 380 q 382 496 481 496 z "},"Ý":{"ha":631,"x_min":-69,"x_max":700,"o":"m 268 0 l 268 375 l -69 749 l 47 749 l 315 453 l 582 749 l 700 749 l 361 374 l 361 0 l 268 0 m 293 840 l 231 840 l 372 1078 l 475 1078 l 293 840 z "},"ý":{"ha":621,"x_min":1,"x_max":619,"o":"m 265 0 l 265 296 l 1 579 l 118 579 l 310 374 l 498 579 l 619 579 l 354 297 l 354 0 l 265 0 m 289 669 l 227 669 l 368 907 l 471 907 l 289 669 z "},"Þ":{"ha":814,"x_min":109,"x_max":772,"o":"m 201 517 l 201 268 l 532 268 q 638 300 602 268 q 675 392 675 332 q 638 484 675 451 q 536 517 602 517 l 201 517 m 109 749 l 201 749 l 201 603 l 538 603 q 710 548 648 603 q 772 395 772 492 q 711 241 772 300 q 550 182 650 182 l 201 182 l 201 0 l 109 0 l 109 749 z "},"þ":{"ha":739,"x_min":100,"x_max":710,"o":"m 191 382 l 191 225 l 521 225 q 592 245 567 225 q 616 304 616 266 q 593 361 616 341 q 525 382 569 382 l 191 382 m 191 467 l 521 467 q 660 424 610 467 q 710 306 710 381 q 661 186 710 233 q 530 140 611 140 l 191 140 l 191 0 l 100 0 l 100 579 l 191 579 l 191 467 z "},"−":{"ha":1157,"x_min":172,"x_max":985,"o":"m 985 447 l 985 380 l 172 380 l 172 447 l 985 447 z "},"×":{"ha":1157,"x_min":207,"x_max":954,"o":"m 581 461 l 907 787 l 954 741 l 628 414 l 954 87 l 907 40 l 581 367 l 254 40 l 207 87 l 533 414 l 207 741 l 254 787 l 581 461 z "},"¹":{"ha":611,"x_min":273,"x_max":336,"o":"m 273 281 l 273 713 l 336 713 l 336 281 l 273 281 z "},"²":{"ha":611,"x_min":106,"x_max":528,"o":"m 107 283 q 106 328 107 304 q 106 336 106 334 q 137 442 106 406 q 244 503 168 479 q 319 526 272 512 q 454 602 454 567 q 421 649 454 630 q 338 668 389 668 q 247 652 293 668 q 147 602 200 635 l 110 644 q 220 702 166 684 q 332 721 275 721 q 466 687 414 721 q 518 602 518 652 q 350 480 518 532 q 325 472 334 475 q 194 418 220 441 q 168 357 168 396 q 169 344 168 349 q 170 335 169 339 l 528 335 l 528 283 l 107 283 z "},"³":{"ha":611,"x_min":53,"x_max":561,"o":"m 90 414 q 202 344 149 365 q 318 323 254 323 q 447 351 396 323 q 497 416 497 378 q 458 474 497 455 q 340 493 419 493 l 319 493 l 319 544 q 332 544 325 544 q 350 543 338 543 q 435 557 408 543 q 461 602 461 571 q 428 649 461 631 q 342 668 395 668 q 245 653 292 668 q 150 606 197 637 l 113 652 q 221 703 163 686 q 345 721 280 721 q 476 688 427 721 q 525 602 525 656 q 514 557 525 577 q 482 522 503 537 q 541 480 521 507 q 561 418 561 453 q 493 315 561 357 q 322 272 425 272 q 174 296 239 272 q 53 371 109 320 l 90 414 z "},"¼":{"ha":1398,"x_min":261,"x_max":1357,"o":"m 954 146 l 1223 146 l 1223 335 l 954 146 m 1223 0 l 1223 96 l 864 96 l 864 146 l 1223 399 l 1282 399 l 1282 146 l 1357 146 l 1357 96 l 1282 96 l 1282 0 l 1223 0 m 953 728 l 1046 728 l 446 -20 l 351 -20 l 953 728 m 261 309 l 261 711 l 321 711 l 321 309 l 261 309 z "},"½":{"ha":1398,"x_min":261,"x_max":1318,"o":"m 918 0 q 917 30 918 13 q 916 50 916 47 q 945 148 916 113 q 1048 204 975 182 q 1118 226 1074 212 q 1249 297 1249 264 q 1217 342 1249 324 q 1137 359 1186 359 q 1051 345 1095 359 q 956 297 1006 330 l 921 338 q 1024 391 972 374 q 1132 408 1076 408 q 1260 376 1211 408 q 1310 296 1310 345 q 1143 182 1310 231 q 1125 176 1131 178 q 999 125 1023 146 q 975 68 975 104 q 976 61 975 65 q 978 49 976 58 l 1318 49 l 1318 0 l 918 0 m 953 728 l 1046 728 l 446 -20 l 351 -20 l 953 728 m 261 309 l 261 711 l 321 711 l 321 309 l 261 309 z "},"¾":{"ha":1398,"x_min":50,"x_max":1357,"o":"m 954 146 l 1223 146 l 1223 335 l 954 146 m 1223 0 l 1223 96 l 864 96 l 864 146 l 1223 399 l 1282 399 l 1282 146 l 1357 146 l 1357 96 l 1282 96 l 1282 0 l 1223 0 m 953 728 l 1046 728 l 446 -20 l 351 -20 l 953 728 m 86 432 q 193 368 142 387 q 304 349 243 349 q 426 374 378 349 q 473 436 473 399 q 436 490 473 472 q 325 507 399 507 l 304 507 l 304 554 l 335 554 q 415 567 389 554 q 440 607 440 580 q 409 653 440 635 q 325 671 378 671 q 234 656 279 671 q 143 612 189 642 l 107 656 q 212 703 155 687 q 328 720 268 720 q 453 689 407 720 q 500 607 500 659 q 490 567 500 585 q 460 533 480 549 q 517 495 498 519 q 536 437 536 471 q 471 340 536 380 q 307 300 406 300 q 166 322 229 300 q 50 393 104 345 l 86 432 z "},"₣":{"ha":1440,"x_min":113,"x_max":1393,"o":"m 113 0 l 113 749 l 701 749 l 701 663 l 205 663 l 205 443 l 505 443 l 505 357 l 205 357 l 205 0 l 113 0 m 878 338 l 1186 338 q 1258 358 1233 338 q 1282 416 1282 378 q 1258 474 1282 454 q 1186 494 1233 494 l 878 494 l 878 338 m 878 253 l 878 0 l 787 0 l 787 578 l 1186 578 q 1325 535 1275 578 q 1375 416 1375 492 q 1336 310 1375 355 q 1232 254 1296 264 l 1393 0 l 1295 0 l 1131 253 l 878 253 z "},"Ğ":{"ha":859,"x_min":53,"x_max":779,"o":"m 686 203 l 686 313 l 482 313 l 482 399 l 779 399 l 779 174 q 638 30 725 80 q 440 -20 551 -20 q 162 91 272 -20 q 53 372 53 202 q 163 654 53 543 q 440 765 273 765 q 629 720 544 765 q 768 590 715 674 l 690 534 q 589 640 655 602 q 440 677 522 677 q 231 591 314 677 q 149 372 149 505 q 231 154 149 240 q 440 68 314 68 q 580 102 519 68 q 686 203 642 136 m 243 1047 l 297 1047 q 333 972 301 996 q 429 949 365 949 q 525 972 494 949 q 560 1047 555 996 l 615 1047 q 565 912 609 955 q 429 869 520 869 q 294 912 339 869 q 243 1047 250 955 z "},"ğ":{"ha":798,"x_min":49,"x_max":730,"o":"m 492 225 l 492 309 l 730 309 l 730 134 q 600 20 680 59 q 412 -18 519 -18 q 151 68 252 -18 q 49 288 49 155 q 151 508 49 420 q 412 595 254 595 q 590 560 513 595 q 720 458 668 526 l 650 408 q 550 484 613 456 q 412 511 488 511 q 218 448 294 511 q 142 289 142 385 q 217 130 142 193 q 412 66 293 66 q 550 94 487 66 q 639 163 614 121 l 639 225 l 492 225 m 213 876 l 267 876 q 302 802 271 825 q 399 778 334 778 q 494 801 464 778 q 530 876 525 825 l 585 876 q 534 741 578 784 q 399 699 490 699 q 264 741 309 699 q 213 876 219 784 z "},"İ":{"ha":321,"x_min":94,"x_max":228,"o":"m 114 0 l 114 753 l 208 753 l 208 0 l 114 0 m 94 949 q 114 997 94 977 q 161 1017 134 1017 q 209 997 189 1017 q 228 949 228 977 q 209 901 228 920 q 161 882 189 882 q 114 902 134 882 q 94 949 94 922 z "},"Ş":{"ha":829,"x_min":41,"x_max":762,"o":"m 41 113 l 96 193 q 261 99 175 132 q 431 66 347 66 q 599 111 534 66 q 664 224 664 155 q 617 314 664 279 q 489 357 571 350 q 432 361 469 359 q 180 404 248 374 q 101 469 128 429 q 74 558 74 509 q 155 707 74 648 q 364 765 235 765 q 549 734 458 765 q 722 643 640 703 l 668 566 q 523 649 599 621 q 366 677 446 677 q 226 645 281 677 q 171 562 171 612 q 180 526 171 543 q 207 496 189 510 q 406 452 253 461 q 515 443 477 448 q 696 370 629 430 q 762 221 762 309 q 671 48 762 116 q 432 -20 580 -20 q 224 13 320 -20 q 41 113 128 45 m 252 -283 l 252 -232 q 351 -251 317 -245 q 412 -256 386 -256 q 478 -240 456 -256 q 501 -195 501 -224 q 478 -140 501 -157 q 404 -123 454 -123 q 385 -124 391 -123 q 372 -125 378 -124 l 372 0 l 415 0 l 415 -75 l 429 -75 q 538 -105 500 -75 q 576 -192 576 -135 q 537 -280 576 -250 q 423 -311 498 -311 q 348 -305 387 -311 q 252 -283 309 -299 z "},"ş":{"ha":688,"x_min":49,"x_max":625,"o":"m 49 74 l 93 150 q 223 87 153 110 q 358 65 294 65 q 483 97 435 65 q 530 178 530 128 q 487 251 530 227 q 350 278 444 275 q 133 315 192 280 q 74 429 74 349 q 139 549 74 504 q 313 595 203 595 q 457 574 387 595 q 593 511 528 553 l 547 436 q 431 493 493 473 q 311 513 368 513 q 205 490 245 513 q 165 429 165 467 q 206 374 165 391 q 346 358 246 358 q 555 311 484 358 q 625 172 625 264 q 554 36 625 90 q 368 -18 482 -18 q 201 6 284 -18 q 49 74 118 30 m 182 -283 l 182 -232 q 281 -251 246 -245 q 342 -256 315 -256 q 408 -240 385 -256 q 431 -195 431 -224 q 407 -140 431 -157 q 334 -123 384 -123 q 314 -124 321 -123 q 302 -125 308 -124 l 302 0 l 345 0 l 345 -75 l 358 -75 q 468 -105 430 -75 q 506 -192 506 -135 q 467 -280 506 -250 q 353 -311 427 -311 q 277 -305 316 -311 q 182 -283 238 -299 z "},"Ć":{"ha":839,"x_min":53,"x_max":785,"o":"m 710 239 l 785 183 q 644 33 733 85 q 440 -20 554 -20 q 162 91 272 -20 q 53 372 53 202 q 163 654 53 543 q 440 765 273 765 q 629 720 544 765 q 768 590 715 674 l 690 534 q 589 640 655 602 q 440 677 522 677 q 231 591 314 677 q 149 372 149 505 q 231 154 149 240 q 440 68 314 68 q 597 111 528 68 q 710 239 665 155 m 423 840 l 361 840 l 503 1078 l 606 1078 l 423 840 z "},"ć":{"ha":765,"x_min":49,"x_max":711,"o":"m 711 142 q 582 23 662 64 q 399 -18 501 -18 q 148 68 246 -18 q 49 288 49 155 q 148 508 49 420 q 399 595 246 595 q 571 559 494 595 q 696 458 648 524 l 624 408 q 529 485 588 458 q 399 511 471 511 q 215 448 288 511 q 142 289 142 385 q 215 130 142 193 q 399 66 288 66 q 535 97 476 66 q 639 192 594 127 l 711 142 m 361 669 l 298 669 l 440 907 l 543 907 l 361 669 z "},"Č":{"ha":839,"x_min":53,"x_max":785,"o":"m 710 239 l 785 183 q 644 33 733 85 q 440 -20 554 -20 q 162 91 272 -20 q 53 372 53 202 q 163 654 53 543 q 440 765 273 765 q 629 720 544 765 q 768 590 715 674 l 690 534 q 589 640 655 602 q 440 677 522 677 q 231 591 314 677 q 149 372 149 505 q 231 154 149 240 q 440 68 314 68 q 597 111 528 68 q 710 239 665 155 m 258 1078 l 321 1078 l 446 900 l 570 1078 l 633 1078 l 497 840 l 394 840 l 258 1078 z "},"č":{"ha":765,"x_min":49,"x_max":711,"o":"m 711 142 q 582 23 662 64 q 399 -18 501 -18 q 148 68 246 -18 q 49 288 49 155 q 148 508 49 420 q 399 595 246 595 q 571 559 494 595 q 696 458 648 524 l 624 408 q 529 485 588 458 q 399 511 471 511 q 215 448 288 511 q 142 289 142 385 q 215 130 142 193 q 399 66 288 66 q 535 97 476 66 q 639 192 594 127 l 711 142 m 196 907 l 258 907 l 383 729 l 508 907 l 570 907 l 435 669 l 332 669 l 196 907 z "},"đ":{"ha":739,"x_min":0,"x_max":696,"o":"m 380 579 q 609 498 522 579 q 696 288 696 417 q 611 78 696 157 q 380 0 526 0 l 122 0 l 122 273 l 0 273 l 0 350 l 122 350 l 122 579 l 380 579 m 382 496 l 212 496 l 212 350 l 390 350 l 390 273 l 212 273 l 212 83 l 382 83 q 544 139 485 83 q 603 289 603 194 q 542 438 603 380 q 382 496 481 496 z "},"­":{"ha":357,"x_min":32,"x_max":325,"o":"m 32 414 l 325 414 l 325 332 l 32 332 l 32 414 z "},"∙":{"ha":463,"x_min":174,"x_max":290,"o":"m 174 363 q 190 404 174 387 q 231 421 206 421 q 273 404 255 421 q 290 363 290 387 q 273 321 290 338 q 231 304 256 304 q 190 321 207 304 q 174 363 174 338 z "}}}
